<svg width="174" height="174" viewBox="0 0 174 174" fill="none" xmlns="http://www.w3.org/2000/svg">
<path d="M166.816 102.531C166.613 103.512 165.746 104.207 164.766 104.207C164.621 104.207 164.477 104.207 164.359 104.176C163.812 104.062 163.352 103.742 163.035 103.281C162.715 102.82 162.602 102.242 162.715 101.723C162.918 100.742 163.785 100.02 164.766 100.02C164.91 100.02 165.023 100.02 165.168 100.051C166.297 100.281 167.047 101.379 166.816 102.531ZM164.738 73.1484C164.879 73.1484 165.023 73.1484 165.141 73.1172C166.266 72.8867 167.016 71.7891 166.785 70.6641C166.582 69.6836 165.719 68.9609 164.738 68.9609C164.594 68.9609 164.449 68.9609 164.332 68.9883C163.207 69.2227 162.457 70.3164 162.688 71.4727C162.891 72.4531 163.754 73.1484 164.738 73.1484ZM86.6836 41.3086C87.3789 41.3086 87.9531 40.7305 87.9531 40.0391C87.9531 39.3437 87.3789 38.7695 86.6836 38.7695C85.9922 38.7695 85.4141 39.3437 85.4141 40.0391C85.4141 40.7305 85.9922 41.3086 86.6836 41.3086ZM86.6836 131.945C85.9922 131.945 85.4141 132.523 85.4141 133.215C85.4141 133.91 85.9922 134.484 86.6836 134.484C87.3789 134.484 87.9531 133.91 87.9531 133.215C87.9531 132.523 87.3789 131.945 86.6836 131.945ZM133.273 85.3555C132.582 85.3555 132.004 85.9336 132.004 86.625C132.004 87.3203 132.582 87.8984 133.273 87.8984C133.965 87.8984 134.543 87.3203 134.543 86.625C134.543 85.9336 133.965 85.3555 133.273 85.3555ZM40.0977 87.8984C40.7891 87.8984 41.3672 87.3203 41.3672 86.625C41.3672 85.9336 40.7891 85.3555 40.0977 85.3555C39.4023 85.3555 38.8242 85.9336 38.8242 86.625C38.8242 87.3203 39.4023 87.8984 40.0977 87.8984ZM120.516 54.5859C121.004 54.0937 121.004 53.2891 120.516 52.7695C120.023 52.25 119.215 52.2773 118.695 52.7695C118.207 53.2578 118.207 54.0664 118.695 54.5859C119.215 55.0781 120.023 55.0781 120.516 54.5859ZM52.8555 118.668C52.3633 119.156 52.3633 119.965 52.8555 120.484C53.3437 120.977 54.1523 120.977 54.6719 120.484C55.1641 119.996 55.1641 119.187 54.6719 118.668C54.1523 118.176 53.3437 118.176 52.8555 118.668ZM120.516 120.457C121.004 119.965 121.004 119.156 120.516 118.637C120.023 118.148 119.215 118.148 118.695 118.637C118.207 119.129 118.207 119.937 118.695 120.457C119.215 120.977 120.023 120.977 120.516 120.457ZM52.8555 52.7969C52.3633 53.2891 52.3633 54.0937 52.8555 54.6133C53.3437 55.1055 54.1523 55.1055 54.6719 54.6133C55.1641 54.125 55.1641 53.3164 54.6719 52.7969C54.1836 52.2773 53.3437 52.2773 52.8555 52.7969ZM158.848 116.531C158.039 118.465 155.848 119.359 153.91 118.582C152.297 117.918 151.402 116.242 151.633 114.57L136.273 108.219C139.969 112.434 142.656 117.859 143.953 124.094C144.934 128.828 145.02 133.676 145.828 138.469C146.117 140.23 146.637 146.609 147.906 147.906C146.609 146.609 140.23 146.117 138.469 145.828C133.707 145.051 128.855 144.934 124.094 143.953C117.859 142.656 112.461 139.969 108.219 136.273L114.57 151.633C116.215 151.402 117.887 152.297 118.582 153.91C119.391 155.848 118.465 158.039 116.531 158.848C114.598 159.656 112.402 158.734 111.594 156.797C110.93 155.184 111.48 153.363 112.809 152.352L106.457 136.996C106.082 142.598 104.148 148.312 100.656 153.625C98 157.664 94.6211 161.187 91.8242 165.113C90.7852 166.555 86.625 171.434 86.625 173.25C86.625 171.434 82.4687 166.555 81.4297 165.113C78.6328 161.187 75.2539 157.691 72.5977 153.625C69.1055 148.312 67.1719 142.566 66.7969 136.996L60.4453 152.352C61.7734 153.363 62.3203 155.184 61.6602 156.797C60.8516 158.734 58.6563 159.629 56.7227 158.848C54.7891 158.039 53.8945 155.848 54.6719 153.91C55.3359 152.297 57.0117 151.402 58.6836 151.633L65.0352 136.273C60.8203 139.969 55.3945 142.656 49.1602 143.953C44.4258 144.934 39.5781 145.02 34.7852 145.828C33.0234 146.117 26.6445 146.637 25.3438 147.906C26.6445 146.609 27.1367 140.23 27.4258 138.469C28.2031 133.707 28.3203 128.855 29.3008 124.094C30.5977 117.859 33.2852 112.461 36.9766 108.219L21.6211 114.57C21.8516 116.215 20.957 117.887 19.3398 118.582C17.4062 119.391 15.2148 118.465 14.4062 116.531C13.5977 114.598 14.5195 112.402 16.4531 111.594C18.0703 110.93 19.8906 111.48 20.8984 112.809L36.2578 106.457C30.6562 106.082 24.9414 104.148 19.6289 100.656C15.5898 98 12.0664 94.6211 8.14062 91.8242C6.69922 90.7852 1.82031 86.625 0 86.625C1.82031 86.625 6.69922 82.4687 8.14062 81.4297C12.0664 78.6328 15.5586 75.2539 19.6289 72.5977C24.9414 69.1055 30.6875 67.1719 36.2578 66.7969L20.8984 60.4453C19.8906 61.7734 18.0703 62.3203 16.4531 61.6562C14.5195 60.8516 13.625 58.6563 14.4062 56.7227C15.2148 54.7891 17.4062 53.8945 19.3398 54.6719C20.957 55.3359 21.8516 57.0117 21.6211 58.6836L36.9766 65.0352C33.2852 60.8203 30.5977 55.3945 29.3008 49.1602C28.3203 44.4258 28.2305 39.5781 27.4258 34.7852C27.1367 33.0234 26.6172 26.6445 25.3438 25.3438C26.6445 26.6445 33.0234 27.1367 34.7852 27.4258C39.5469 28.2031 44.3984 28.3203 49.1602 29.3008C55.3945 30.5977 60.793 33.2852 65.0352 36.9766L58.6836 21.6211C57.0391 21.8516 55.3672 20.957 54.6719 19.3398C53.8633 17.4062 54.7891 15.2148 56.7227 14.4062C58.6563 13.5977 60.8516 14.5195 61.6602 16.4531C62.3203 18.0703 61.7734 19.8906 60.4453 20.8984L66.7969 36.2578C67.1719 30.6562 69.1055 24.9414 72.5977 19.6289C75.2539 15.5898 78.6328 12.0664 81.4297 8.14062C82.4687 6.69922 86.625 1.82031 86.625 0C86.625 1.82031 90.7852 6.69922 91.8242 8.14062C94.6211 12.0664 98 15.5586 100.656 19.6289C104.148 24.9414 106.082 30.6875 106.457 36.2578L112.809 20.8984C111.48 19.8906 110.93 18.0703 111.594 16.4531C112.402 14.5195 114.598 13.625 116.531 14.4062C118.465 15.2148 119.359 17.4062 118.582 19.3398C117.918 20.957 116.242 21.8516 114.57 21.6211L108.219 36.9766C112.434 33.2852 117.859 30.5977 124.094 29.3008C128.828 28.3203 133.676 28.2305 138.469 27.4258C140.23 27.1367 146.609 26.6172 147.906 25.3438C146.609 26.6445 146.117 33.0234 145.828 34.7852C145.051 39.5469 144.934 44.3984 143.953 49.1602C142.656 55.3945 139.969 60.793 136.273 65.0352L151.633 58.6836C151.402 57.0391 152.297 55.3672 153.91 54.6719C155.848 53.8633 158.039 54.7891 158.848 56.7227C159.656 58.6563 158.734 60.8516 156.797 61.6562C155.184 62.3203 153.363 61.7734 152.352 60.4453L136.996 66.7969C142.598 67.1719 148.312 69.1055 153.625 72.5977C157.664 75.2539 161.187 78.6328 165.113 81.4297C166.555 82.4687 171.434 86.625 173.25 86.625C171.434 86.625 166.555 90.7852 165.113 91.8242C161.187 94.6211 157.691 98 153.625 100.656C148.312 104.148 142.566 106.082 136.996 106.457L152.352 112.809C153.363 111.48 155.184 110.93 156.797 111.594C158.734 112.402 159.656 114.598 158.848 116.531ZM111.77 40.3828C113.039 41.7422 113.875 43.3594 114.281 45.2617V45.293H114.309C116.098 44.9453 117.801 45.0625 119.445 45.6367C120.687 44.7148 122.102 43.9648 123.402 43.5312C125.914 42.7227 127.098 42.6953 129.23 42.1445C130.617 41.8008 131.543 41.7695 132.582 40.7305C131.543 41.7695 131.543 42.6953 131.168 44.0781C130.617 46.1875 130.59 47.3984 129.781 49.9102C129.375 51.207 128.598 52.5937 127.672 53.8633C128.223 55.5117 128.336 57.2148 128.02 59.0039V59.0312H128.047C129.926 59.4375 131.57 60.2734 132.926 61.543C135.957 57.9648 138.121 53.4023 139.191 48.207C139.68 45.8125 139.941 43.3008 140.199 40.6719C140.434 38.5078 140.633 36.2852 141.008 34.0625C141.039 33.8047 141.125 33.2852 141.184 32.707C141.211 32.4766 141.238 32.2734 141.27 32.0703C141.066 32.1016 140.836 32.1289 140.633 32.1562C140.055 32.2148 139.535 32.3008 139.277 32.332C137.027 32.707 134.805 32.9375 132.668 33.1406C130.012 33.3984 127.527 33.6602 125.133 34.1484C119.91 35.2187 115.375 37.3828 111.77 40.3828ZM138.18 86.625C138.18 86.5977 138.18 86.5977 138.18 86.5703C138.18 82.6133 136.68 80.0156 134.254 78.3984C132.957 79.8164 131.281 81.0547 129.348 82.0938C129.492 83.5664 129.578 85.0977 129.578 86.625C129.578 88.1562 129.492 89.6563 129.348 91.1602C131.281 92.1992 132.957 93.4102 134.254 94.8516C136.68 93.2383 138.18 90.668 138.18 86.6836C138.18 86.6562 138.18 86.6562 138.18 86.625ZM114.512 126.086C117.367 126.664 120.254 125.914 123.055 123.082L123.082 123.055L123.113 123.027C125.941 120.227 126.691 117.34 126.113 114.48C124.18 114.57 122.133 114.25 120.023 113.617C118.117 115.953 115.984 118.09 113.645 119.996C114.281 122.074 114.625 124.152 114.512 126.086ZM127.848 86.625C127.152 87.0312 126.316 87.6641 125.449 88.3281C125.191 88.5312 124.988 88.6758 124.844 88.793C123.98 89.3984 123.172 90.0898 122.363 90.7266C121.352 91.5352 120.312 92.3984 119.215 93.0938C116.414 94.9102 113.328 95.8945 110.297 95.8945C110.297 95.8945 110.238 95.8945 110.211 95.8945L118.031 99.125C118.523 98.4922 119.391 98.2305 120.168 98.5469C121.094 98.9219 121.523 99.9922 121.148 100.914C120.773 101.84 119.707 102.273 118.781 101.898C118.004 101.578 117.57 100.77 117.688 99.9922L109.922 96.7305C112.086 98.8672 113.617 101.754 114.309 105.07C114.57 106.344 114.711 107.668 114.828 108.969C114.945 109.98 115.031 111.047 115.203 112.086C115.23 112.258 115.262 112.52 115.289 112.836C115.434 113.906 115.578 114.945 115.781 115.723C115 115.52 113.961 115.375 112.895 115.23C112.578 115.203 112.316 115.176 112.145 115.145C111.105 114.973 110.035 114.855 109.027 114.77C107.727 114.625 106.398 114.512 105.129 114.25C101.809 113.559 98.9531 112.059 96.7891 109.863L100.02 117.715C100.801 117.598 101.609 118.031 101.926 118.812C102.301 119.734 101.867 120.773 100.945 121.18C100.02 121.555 98.9805 121.121 98.5781 120.195C98.2578 119.418 98.5195 118.551 99.1562 118.062L95.9219 110.211C95.9492 113.27 94.9687 116.387 93.1211 119.215C92.3984 120.312 91.5625 121.352 90.7539 122.332C90.0898 123.141 89.4258 123.949 88.8203 124.816C88.7344 124.961 88.5625 125.16 88.3594 125.422C87.6953 126.289 87.0586 127.098 86.6562 127.816C86.25 127.125 85.6172 126.289 84.9531 125.422C84.75 125.16 84.6055 124.961 84.4922 124.816C83.8828 123.949 83.1914 123.141 82.5586 122.332C81.75 121.324 80.8828 120.285 80.1914 119.215C78.3438 116.387 77.3594 113.27 77.3906 110.211L74.1562 118.062C74.793 118.551 75.0508 119.418 74.7344 120.195C74.3594 121.121 73.2891 121.555 72.3672 121.18C71.4453 120.805 71.0117 119.734 71.3867 118.812C71.7031 118.031 72.5117 117.598 73.2891 117.715L76.5234 109.863C74.3867 112.027 71.5 113.559 68.1836 114.25C66.9102 114.512 65.582 114.656 64.2852 114.77C63.2734 114.887 62.207 114.973 61.168 115.145C60.9961 115.176 60.7344 115.203 60.418 115.23C59.3477 115.375 58.3086 115.52 57.5312 115.723C57.7344 114.945 57.875 113.906 58.0195 112.836C58.0508 112.52 58.0781 112.258 58.1094 112.086C58.2812 111.047 58.3945 109.98 58.4844 108.969C58.6289 107.668 58.7422 106.344 59.0039 105.07C59.6953 101.754 61.1953 98.8945 63.3906 96.7305L55.5391 99.9609C55.6523 100.742 55.2227 101.551 54.4414 101.867C53.5195 102.242 52.4805 101.809 52.0742 100.887C51.6992 99.9609 52.1328 98.9219 53.0547 98.5195C53.8359 98.2031 54.7031 98.4609 55.1914 99.0977L63.0156 95.8633C62.9844 95.8633 62.9297 95.8633 62.9297 95.8633C59.8984 95.8633 56.8086 94.8828 54.0078 93.0625C52.9102 92.3438 51.8711 91.5039 50.8633 90.6953C50.0547 90.0312 49.2461 89.3672 48.3789 88.7617C48.2344 88.6758 48.0352 88.5039 47.7734 88.3008C46.9062 87.6367 46.1016 87.0039 45.3789 86.5977C46.0703 86.1953 46.9062 85.5586 47.7734 84.8945C48.0352 84.6914 48.2344 84.5469 48.3789 84.4336C49.2461 83.8281 50.0547 83.1328 50.8633 82.5C51.8711 81.6914 52.9102 80.8242 53.9805 80.1328C56.7812 78.3125 59.8672 77.332 62.8984 77.332C62.8984 77.332 62.957 77.332 62.9844 77.332L55.1641 74.0977C54.6719 74.7344 53.8086 74.9922 53.0273 74.6758C52.1055 74.3008 51.6719 73.2344 52.0469 72.3086C52.4219 71.3867 53.4883 70.9531 54.4141 71.3281C55.1914 71.6445 55.625 72.4531 55.5117 73.2344L63.3594 76.4648C61.1953 74.332 59.668 71.4453 58.9727 68.125C58.7148 66.8555 58.5703 65.5273 58.4531 64.2266C58.3398 63.2187 58.2539 62.1484 58.0781 61.1094C58.0508 60.9375 58.0195 60.6758 57.9922 60.3594C57.8477 59.293 57.7031 58.2539 57.5 57.4727C50.0547 64.9219 45.4375 75.2266 45.4375 86.5703C45.4375 97.9414 50.0547 108.219 57.5 115.664C64.9492 123.113 75.2539 127.73 86.5977 127.73C109.43 127.789 127.848 109.371 127.848 86.625ZM112.059 121.207C111.047 121.957 109.98 122.68 108.91 123.316C110.125 124.238 111.395 124.988 112.664 125.508C112.691 124.152 112.461 122.68 112.059 121.207ZM94.8828 134.195C93.4687 132.898 92.2266 131.223 91.1875 129.289C89.7148 129.434 88.1836 129.52 86.6562 129.52C85.125 129.52 83.625 129.434 82.125 129.289C81.0859 131.223 79.8711 132.898 78.4297 134.195C80.0469 136.621 82.6133 138.121 86.5977 138.121C86.625 138.121 86.625 138.121 86.6562 138.121C86.6836 138.121 86.6836 138.121 86.7148 138.121C90.6953 138.152 93.293 136.621 94.8828 134.195ZM86.8281 140C86.8008 140 86.7422 140 86.7422 140C86.7148 140 86.6562 140 86.6562 140C86.625 140 86.5977 140 86.5703 140C85.1562 140 83.8555 139.824 82.6719 139.48C82.9023 140.52 83.2187 141.5 83.6523 142.336C84.3477 143.695 84.8945 144.531 85.5 145.398C85.875 145.973 86.2812 146.551 86.7148 147.301C87.1445 146.551 87.5508 145.973 87.9258 145.398C88.5039 144.5 89.082 143.695 89.7734 142.336C90.207 141.527 90.5234 140.52 90.7539 139.48C89.543 139.824 88.2422 140 86.8281 140ZM80.1914 129.031C78.918 128.828 77.6797 128.598 76.4648 128.281C76.668 129.809 77.0156 131.223 77.5625 132.465C78.543 131.543 79.4102 130.359 80.1914 129.031ZM95.8047 132.492C96.3555 131.223 96.6992 129.809 96.9023 128.309C95.6914 128.598 94.4492 128.855 93.1797 129.059C93.957 130.359 94.8242 131.543 95.8047 132.492ZM61.3125 121.207C60.9062 122.707 60.707 124.152 60.707 125.539C61.9766 125.02 63.2461 124.266 64.457 123.344C63.3594 122.652 62.3203 121.957 61.3125 121.207ZM59.7227 119.965C57.3867 118.062 55.25 115.926 53.3438 113.586C51.2383 114.223 49.1875 114.539 47.2539 114.453C46.6758 117.312 47.4258 120.195 50.2578 122.996L50.2852 123.027L50.3125 123.055C53.1133 125.883 56 126.633 58.8594 126.059C58.7734 124.152 59.0898 122.074 59.7227 119.965ZM35.1875 86.625C35.1875 86.6562 35.1875 86.6562 35.1875 86.6836C35.1875 90.6406 36.6914 93.2383 39.1133 94.8516C40.4141 93.4375 42.0859 92.1992 44.0234 91.1602C43.8789 89.6875 43.7891 88.1562 43.7891 86.625C43.7891 85.0977 43.8789 83.5977 44.0234 82.0938C42.0859 81.0547 40.4141 79.8437 39.1133 78.3984C36.6914 80.0156 35.1875 82.5859 35.1875 86.5703C35.1875 86.5977 35.1875 86.5977 35.1875 86.625ZM58.8594 47.168C56 46.5898 53.1133 47.3398 50.3125 50.168L50.2852 50.1992L50.2578 50.2266C47.4258 53.0273 46.6758 55.9141 47.2539 58.7734C49.1875 58.6836 51.2383 59.0039 53.3438 59.6367C55.25 57.3008 57.3867 55.1641 59.7227 53.2578C59.0898 51.1797 58.7422 49.1016 58.8594 47.168ZM57.5898 57.5312C58.3672 57.7344 59.4062 57.875 60.4766 58.0195C60.793 58.0508 61.0508 58.0781 61.2266 58.1094C62.2656 58.2812 63.332 58.3945 64.3438 58.4844C65.6406 58.6289 66.9687 58.7422 68.2383 59.0039C71.5586 59.6953 74.418 61.1953 76.582 63.3906L73.3477 55.5391C72.5703 55.6523 71.7617 55.2227 71.4453 54.4414C71.0664 53.5195 71.5 52.4805 72.4258 52.0742C73.3477 51.6992 74.3867 52.1328 74.793 53.0547C75.1094 53.8359 74.8516 54.7031 74.2148 55.1914L77.4492 63.043C77.418 59.9844 78.3984 56.8672 80.2461 54.0391C80.9687 52.9414 81.8047 51.9023 82.6133 50.9219C83.2773 50.1133 83.9414 49.3047 84.5469 48.4375C84.6367 48.293 84.8086 48.0898 85.0117 47.832C85.6758 46.9648 86.3086 46.1562 86.7148 45.4375C87.1172 46.1289 87.7539 46.9648 88.418 47.832C88.6172 48.0898 88.7617 48.293 88.8789 48.4375C89.4844 49.3047 90.1758 50.1133 90.8125 50.9219C91.6211 51.9297 92.4883 52.9687 93.1797 54.0391C95.0273 56.8672 96.0078 59.9844 95.9805 63.043L99.2109 55.1914C98.5781 54.7031 98.3164 53.8359 98.6367 53.0547C99.0117 52.1328 100.078 51.6992 101 52.0742C101.926 52.4492 102.359 53.5195 101.984 54.4414C101.664 55.2227 100.859 55.6523 100.078 55.5391L96.7891 63.3906C98.9219 61.2266 101.809 59.6953 105.129 59.0039C106.398 58.7422 107.727 58.5977 109.027 58.4844C110.035 58.3672 111.105 58.2812 112.145 58.1094C112.316 58.0781 112.578 58.0508 112.895 58.0195C113.961 57.875 115 57.7344 115.781 57.5312C115.578 58.3086 115.434 59.3477 115.289 60.418C115.262 60.7344 115.23 60.9961 115.203 61.168C115.031 62.207 114.914 63.2734 114.828 64.2852C114.684 65.582 114.57 66.9102 114.309 68.1836C113.617 71.5 112.113 74.3594 109.922 76.5234L117.773 73.2891C117.656 72.5117 118.09 71.7031 118.871 71.3867C119.793 71.0117 120.832 71.4453 121.238 72.3672C121.613 73.2891 121.18 74.332 120.254 74.7344C119.477 75.0508 118.609 74.793 118.117 74.1562L110.297 77.3906C110.324 77.3906 110.383 77.3906 110.383 77.3906C113.414 77.3906 116.504 78.3711 119.301 80.1914C120.398 80.9102 121.437 81.75 122.418 82.5586C123.227 83.2187 124.035 83.8828 124.902 84.4922C125.047 84.5781 125.25 84.75 125.508 84.9531C126.375 85.6172 127.184 86.25 127.902 86.6562C127.902 63.9102 109.488 45.4922 86.7422 45.4922C75.3125 45.4648 65.0352 50.082 57.5898 57.5312ZM61.3125 52.0469C62.3203 51.2969 63.3906 50.5742 64.457 49.9375C63.2461 49.0156 61.9766 48.2656 60.707 47.7461C60.6758 49.1016 60.9062 50.5742 61.3125 52.0469ZM78.4883 39.0586C79.9023 40.3555 81.1406 42.0312 82.1797 43.9648C83.6523 43.8203 85.1836 43.7344 86.7148 43.7344C88.2422 43.7344 89.7461 43.8203 91.2461 43.9648C92.2852 42.0312 93.4961 40.3555 94.9414 39.0586C93.3242 36.6328 90.7539 35.1328 86.7695 35.1328C86.7422 35.1328 86.7422 35.1328 86.7148 35.1328C86.6836 35.1328 86.6836 35.1328 86.6562 35.1328C82.6719 35.1016 80.0742 36.6328 78.4883 39.0586ZM86.5391 33.2539C86.5703 33.2539 86.625 33.2539 86.625 33.2539C86.6562 33.2539 86.7148 33.2539 86.7148 33.2539C86.7422 33.2539 86.7695 33.2539 86.8008 33.2539C88.2148 33.2539 89.5117 33.4297 90.6953 33.7734C90.4648 32.7344 90.1484 31.7539 89.7148 30.918C89.0234 29.5586 88.4727 28.7227 87.8672 27.8555C87.4922 27.2812 87.0898 26.7031 86.6562 25.9531C86.2227 26.7031 85.8203 27.2812 85.4414 27.8555C84.8672 28.75 84.2891 29.5586 83.5977 30.918C83.1641 31.7539 82.8437 32.7344 82.6133 33.7734C83.8281 33.4297 85.125 33.2539 86.5391 33.2539ZM93.1797 44.2227C94.4492 44.4258 95.6914 44.6563 96.9023 44.9727C96.6992 43.4453 96.3555 42.0312 95.8047 40.7891C94.8242 41.7109 93.957 42.8945 93.1797 44.2227ZM77.5625 40.7578C77.0156 42.0312 76.668 43.4453 76.4648 44.9453C77.6797 44.6562 78.918 44.3984 80.1914 44.1953C79.4102 42.8945 78.543 41.7109 77.5625 40.7578ZM112.059 52.0742C112.461 50.5742 112.664 49.1289 112.664 47.7461C111.395 48.2656 110.125 49.0156 108.91 49.9375C110.008 50.6016 111.047 51.2969 112.059 52.0742ZM113.645 53.2891C115.984 55.1914 118.117 57.3281 120.023 59.668C122.133 59.0312 124.18 58.7148 126.113 58.8008C126.691 55.9414 125.941 53.0547 123.113 50.2578L123.082 50.2266L123.055 50.1992C120.254 47.3711 117.367 46.6211 114.512 47.1953C114.598 49.1016 114.281 51.1797 113.645 53.2891ZM124.355 66.1328C124.93 67.1719 125.449 68.2383 125.941 69.3359L133.879 66.0469C132.379 62.9297 130.125 61.3398 127.5 60.8203C126.836 62.6406 125.738 64.4297 124.355 66.1328ZM125.566 60.6484C124.18 60.6484 122.738 60.8516 121.238 61.2539C121.988 62.2656 122.707 63.332 123.344 64.4023C124.297 63.1875 125.047 61.918 125.566 60.6484ZM128.25 49.3906C128.711 47.9453 128.914 46.9648 129.117 45.9258C129.262 45.2617 129.375 44.5703 129.605 43.7344C128.77 43.9336 128.078 44.0781 127.414 44.2227C126.375 44.4258 125.395 44.6289 123.949 45.0898C123.082 45.3789 122.133 45.8398 121.238 46.418C122.305 47.0234 123.344 47.8047 124.355 48.8125C124.383 48.8438 124.41 48.8711 124.41 48.8711L124.469 48.9297C124.5 48.957 124.5 48.957 124.527 48.9883C125.539 49.9961 126.316 51.0352 126.922 52.1055C127.473 51.207 127.961 50.2852 128.25 49.3906ZM95.1133 102.762C95.4297 102.418 95.6328 102.012 95.75 101.52V101.492C95.8047 101.234 95.9805 100.973 96.2109 100.828C96.3828 100.715 96.5859 100.656 96.7891 100.656C96.8437 100.656 96.9336 100.656 96.9883 100.684C97.1641 100.715 97.3359 100.742 97.5078 100.742C98.2891 100.742 99.0117 100.395 99.7031 99.7031L99.7305 99.6758L99.7617 99.6445C100.195 99.2109 100.48 98.7773 100.656 98.3164C100.801 97.8828 100.859 97.4219 100.77 96.9336V96.9023C100.715 96.6445 100.77 96.3555 100.914 96.125C101.059 95.8906 101.289 95.75 101.578 95.6914H101.609C102.098 95.5742 102.504 95.3711 102.848 95.0547C103.195 94.7383 103.484 94.3047 103.742 93.7266V93.6992C103.742 93.6719 103.773 93.6406 103.773 93.6406C104.004 93.0938 104.121 92.543 104.09 92.082C104.062 91.6211 103.918 91.1875 103.656 90.7539V90.7266C103.512 90.4961 103.457 90.207 103.512 89.9453C103.57 89.6875 103.715 89.4258 103.945 89.2812C103.945 89.2812 103.945 89.2812 103.977 89.2812C104.379 88.9922 104.668 88.6484 104.871 88.2422C105.07 87.8086 105.188 87.2891 105.188 86.6836C105.188 86.6836 105.188 86.6562 105.188 86.625V86.5977C105.188 85.9922 105.07 85.4727 104.871 85.0391C104.668 84.6055 104.379 84.2617 103.977 83.9727C103.977 83.9727 103.945 83.9727 103.945 83.9414C103.484 83.625 103.34 82.9883 103.656 82.5C103.656 82.5 103.656 82.5 103.656 82.4688C103.918 82.0391 104.062 81.6328 104.09 81.1406C104.121 80.6523 104.004 80.1602 103.773 79.582C103.773 79.582 103.742 79.5547 103.742 79.5273C103.742 79.5273 103.742 79.4961 103.715 79.4961C103.484 78.918 103.195 78.4883 102.82 78.168C102.473 77.8516 102.07 77.6484 101.578 77.5352H101.551C101.289 77.4766 101.059 77.3047 100.914 77.1016C100.77 76.8984 100.715 76.6094 100.77 76.3203V76.293C100.859 75.8008 100.828 75.3398 100.656 74.9062C100.48 74.4453 100.195 74.0117 99.7617 73.5781L99.7305 73.5508L99.7031 73.5234C99.0117 72.8281 98.2578 72.4844 97.5078 72.4844C97.3359 72.4844 97.1641 72.5117 96.9883 72.5391H96.9609C96.9023 72.5391 96.8437 72.5703 96.7578 72.5703C96.2695 72.5703 95.8359 72.2227 95.75 71.7305V71.7031C95.6328 71.2109 95.4297 70.8086 95.1133 70.4609C94.7969 70.1172 94.3633 69.8281 93.7852 69.5664H93.7578C93.7266 69.5664 93.6992 69.5391 93.6992 69.5391C93.1797 69.3359 92.7188 69.2227 92.2539 69.2227C91.7344 69.2227 91.2461 69.3672 90.8125 69.6523C90.8125 69.6523 90.7852 69.6523 90.7852 69.6836C90.6094 69.7969 90.4062 69.8555 90.207 69.8555C89.8594 69.8555 89.543 69.6836 89.3398 69.4219L89.3125 69.3945C89.0234 68.9883 88.6758 68.7031 88.2734 68.5C87.8398 68.2969 87.3203 68.1836 86.7148 68.1836C86.7148 68.1836 86.6836 68.1836 86.6562 68.1836H86.625C86.0195 68.1836 85.5 68.2969 85.0664 68.5C84.6367 68.7031 84.2891 68.9883 84 69.3945C83.7969 69.6836 83.4805 69.8555 83.1328 69.8555C82.9336 69.8555 82.7305 69.7969 82.5586 69.6836C82.5586 69.6836 82.5273 69.6836 82.5273 69.6523C82.0664 69.3672 81.6055 69.2227 81.0859 69.2227C80.6523 69.2227 80.1602 69.3359 79.6406 69.5391H79.6133C79.582 69.5391 79.5547 69.5664 79.5547 69.5664C78.9766 69.7969 78.543 70.0859 78.2266 70.4609C77.9102 70.8086 77.707 71.2109 77.5938 71.7031V71.7305C77.5039 72.2227 77.0742 72.5703 76.582 72.5703C76.5234 72.5703 76.4375 72.5703 76.3789 72.5391H76.3516C76.1758 72.5117 76.0039 72.4844 75.832 72.4844C75.0508 72.4844 74.332 72.8281 73.6367 73.5234L73.6094 73.5508L73.5781 73.5781C73.1484 74.0117 72.8594 74.4453 72.6836 74.9062C72.5391 75.3398 72.4844 75.8008 72.5703 76.293V76.3203C72.6289 76.582 72.5703 76.8711 72.4258 77.1016C72.2812 77.332 72.0508 77.4766 71.7617 77.5352H71.7305C71.2422 77.6484 70.8359 77.8516 70.4922 78.168C70.1445 78.4883 69.8555 78.918 69.5977 79.4961C69.5977 79.4961 69.5664 79.5273 69.5664 79.5547V79.582C69.3359 80.1328 69.2227 80.6797 69.25 81.1406C69.2773 81.6055 69.4219 82.0391 69.6836 82.4688C69.6836 82.4688 69.6836 82.5 69.7109 82.5C70.0273 82.9883 69.8867 83.625 69.4219 83.9414C69.4219 83.9414 69.4219 83.9414 69.3945 83.9414C68.9883 84.2305 68.7031 84.5781 68.5 84.9805C68.2969 85.4141 68.1836 85.9336 68.1836 86.5391C68.1836 86.5391 68.1836 86.5703 68.1836 86.5977V86.625C68.1836 87.2344 68.2969 87.7539 68.5 88.1836C68.7031 88.6172 68.9883 88.9648 69.3945 89.2266C69.3945 89.2266 69.3945 89.2266 69.4219 89.2266C69.6523 89.3672 69.7969 89.6016 69.8555 89.8867C69.9141 90.1484 69.8555 90.4375 69.7109 90.668L69.6836 90.6953C69.4219 91.1289 69.2773 91.5352 69.25 92.0234C69.2227 92.5156 69.3359 93.0078 69.5664 93.582C69.5664 93.582 69.5664 93.6133 69.5977 93.6406C69.5977 93.6406 69.5977 93.6719 69.625 93.6719C69.8555 94.2461 70.1445 94.6797 70.5195 94.9961C70.8672 95.3164 71.2695 95.5156 71.7617 95.6328C72.0195 95.6914 72.2812 95.8359 72.4258 96.0664C72.5703 96.2969 72.6289 96.5859 72.5977 96.8438V96.875C72.5117 97.3633 72.5391 97.8281 72.7148 98.2578C72.8867 98.7227 73.1758 99.1562 73.6094 99.5859L73.6367 99.6172L73.668 99.6445C74.3594 100.336 75.1094 100.684 75.8594 100.684C76.0312 100.684 76.207 100.656 76.3789 100.625H76.4102C76.4648 100.625 76.5234 100.598 76.6094 100.598C77.1016 100.598 77.5352 100.945 77.6211 101.434V101.465C77.7344 101.953 77.9375 102.359 78.2539 102.703C78.5742 103.051 79.0078 103.34 79.582 103.602C79.582 103.602 79.6133 103.629 79.6406 103.629H79.6719C80.1914 103.832 80.6523 103.945 81.1133 103.945C81.6328 103.945 82.125 103.801 82.5586 103.512C82.5586 103.512 82.5586 103.512 82.5859 103.512C82.7578 103.398 82.9609 103.34 83.1641 103.34C83.5078 103.34 83.8281 103.512 84.0273 103.801C84.0273 103.801 84.0273 103.801 84.0273 103.832C84.3164 104.234 84.6641 104.523 85.0664 104.727C85.5 104.926 86.0195 105.043 86.625 105.043H86.6562H86.6836H86.7148C87.3203 105.043 87.8398 104.926 88.2734 104.727C88.707 104.523 89.0508 104.234 89.3125 103.832C89.5117 103.543 89.832 103.367 90.1758 103.367C90.3789 103.367 90.5508 103.426 90.7266 103.543L90.7539 103.57C91.2148 103.859 91.6797 104.004 92.1992 104.004C92.6289 104.004 93.1211 103.887 93.6133 103.688H93.6406C93.6719 103.688 93.6992 103.656 93.6992 103.656C94.332 103.398 94.7969 103.109 95.1133 102.762ZM94.1914 107.352C93.9883 106.516 93.6719 105.68 93.293 104.898C92.1992 105.16 91.1602 105.016 90.2656 104.406C89.5117 105.535 88.3281 106.082 86.7695 106.082H86.7422H86.7148H86.6836C85.125 106.082 83.9727 105.504 83.1914 104.406C82.2969 105.016 81.2578 105.16 80.1602 104.898C79.7578 105.68 79.4688 106.484 79.2656 107.352C78.3711 110.93 79.1523 114.855 81.4883 118.406C82.1523 119.445 82.9609 120.398 83.7695 121.41C84.4336 122.219 85.125 123.055 85.7617 123.98C85.8477 124.094 85.9922 124.297 86.1641 124.5C86.1641 124.5 86.3086 124.672 86.3672 124.758C86.4531 124.875 86.5977 124.93 86.7422 124.93C86.8867 124.93 87.0312 124.875 87.1172 124.758L87.3203 124.5C87.4922 124.297 87.6641 124.066 87.7539 123.949C88.3867 123.055 89.082 122.219 89.7461 121.41C90.582 120.398 91.3594 119.418 92.0547 118.406C94.2773 114.887 95.0547 110.961 94.1914 107.352ZM72.8867 72.8867C72.8867 72.8867 72.8867 72.8594 72.8867 72.8867C72.9141 72.8594 72.9453 72.8281 72.9453 72.8281L72.9727 72.8008C74.0703 71.7031 75.3125 71.2695 76.6406 71.5312C76.8711 70.4609 77.4766 69.625 78.4297 69.0469C78.168 68.2109 77.793 67.4297 77.332 66.6797C75.4258 63.5039 72.0781 61.2812 67.9492 60.4453C66.7383 60.1875 65.4961 60.0703 64.1992 59.9258C63.1602 59.8125 62.0625 59.7227 60.9961 59.5234C60.8516 59.4922 60.6172 59.4648 60.332 59.4375L60.0117 59.4062C59.9844 59.4062 59.9844 59.4062 59.957 59.4062C59.8398 59.4062 59.6953 59.4648 59.6094 59.5508C59.4922 59.668 59.4648 59.8125 59.4648 59.957L59.4922 60.2734C59.5234 60.5625 59.5508 60.8203 59.5781 60.9375C59.7539 62.0352 59.8672 63.1016 59.9844 64.1406C60.1289 65.4414 60.2422 66.6797 60.5039 67.8945C61.3711 72.0195 63.5937 75.3711 66.7383 77.2734C67.4883 77.7344 68.2969 78.082 69.1055 78.3711C69.7109 77.3906 70.5469 76.7852 71.5898 76.582C71.3555 75.2266 71.7891 73.9844 72.8867 72.8867ZM63.0156 78.7773C60.2734 78.7773 57.4727 79.6719 54.9023 81.3438C53.8633 82.0078 52.9102 82.8164 51.9023 83.625C51.0937 84.2891 50.2578 84.9805 49.3633 85.6172C49.2461 85.7031 49.043 85.8477 48.8125 86.0195L48.5547 86.2227C48.4375 86.3086 48.3789 86.4531 48.3789 86.5977C48.3789 86.7422 48.4375 86.8867 48.5547 86.9727L48.8125 87.1758C49.043 87.3477 49.2461 87.4922 49.332 87.5781C50.2266 88.2148 51.0664 88.9062 51.8711 89.5703C52.8828 90.4062 53.8633 91.1875 54.875 91.8516C57.4453 93.5273 60.2422 94.4219 62.9844 94.4219C63.9961 94.4219 64.9766 94.3047 65.9297 94.0742C66.7656 93.8711 67.6055 93.5547 68.3828 93.1797C68.125 92.082 68.2695 91.043 68.875 90.1484C67.75 89.3984 67.1992 88.2148 67.1992 86.6562V86.625V86.5977V86.5703C67.1992 85.0117 67.7773 83.8555 68.875 83.0781C68.2695 82.1797 68.125 81.1406 68.3828 80.0469C67.6055 79.6406 66.7969 79.3516 65.9297 79.1523C65.0078 78.8906 63.9961 78.7773 63.0156 78.7773ZM60.4766 105.359C60.2148 106.574 60.0977 107.812 59.957 109.113C59.8398 110.152 59.7539 111.25 59.5508 112.316C59.5234 112.461 59.4922 112.691 59.4648 112.98L59.4375 113.297C59.4062 113.441 59.4648 113.586 59.5781 113.703C59.668 113.789 59.7812 113.848 59.9258 113.848C59.957 113.848 59.957 113.848 59.9844 113.848L60.3008 113.816C60.5898 113.789 60.8203 113.762 60.9648 113.73C62.0625 113.559 63.1289 113.441 64.168 113.328C65.4687 113.184 66.7109 113.066 67.9219 112.809C72.0508 111.941 75.3984 109.719 77.3047 106.574C77.7656 105.82 78.1133 105.016 78.3984 104.207C77.418 103.602 76.8125 102.762 76.6094 101.723C75.2812 101.984 74.043 101.551 72.9453 100.453L72.9141 100.426L72.8867 100.395L72.8594 100.367C71.7617 99.2695 71.3281 98.0273 71.5898 96.6992C70.5195 96.4687 69.6836 95.8633 69.1055 94.9102C68.2695 95.1719 67.4883 95.5469 66.7383 96.0078C63.5625 97.8828 61.3398 101.234 60.4766 105.359ZM79.1797 65.9023C79.3828 66.7383 79.6992 67.5742 80.0742 68.3555C81.1719 68.0937 82.2109 68.2383 83.1055 68.8477C83.8555 67.7188 85.0391 67.1719 86.5977 67.1719H86.625H86.6562H86.6836C88.2422 67.1719 89.3984 67.75 90.1758 68.8477C91.0703 68.2383 92.1094 68.0937 93.207 68.3555C93.6133 67.5742 93.9023 66.7656 94.1016 65.9023C94.9961 62.3203 94.2188 58.3945 91.8789 54.8477C91.2148 53.8086 90.4062 52.8555 89.6016 51.8438C88.9375 51.0352 88.2422 50.1992 87.6094 49.3047C87.5234 49.1875 87.3789 48.9883 87.2031 48.7539L87.0039 48.4961C86.9141 48.3789 86.7695 48.3242 86.625 48.3242C86.4844 48.3242 86.3398 48.3789 86.25 48.4961L86.0508 48.7539C85.875 48.9883 85.7031 49.1875 85.6172 49.3047C84.9805 50.1992 84.2891 51.0352 83.625 51.8438C82.7891 52.8555 82.0078 53.8359 81.3438 54.8477C79.0938 58.3672 78.3125 62.293 79.1797 65.9023ZM101.754 76.5547C101.754 76.5547 101.781 76.5547 101.754 76.5547C102.82 76.7852 103.656 77.3906 104.262 78.3711C105.102 78.1133 105.879 77.7344 106.629 77.2734C109.805 75.3711 112.027 72.0195 112.867 67.8945C113.125 66.6797 113.242 65.4414 113.387 64.1406C113.5 63.1016 113.586 62.0039 113.789 60.9375C113.816 60.793 113.848 60.5312 113.875 60.2422C113.875 60.1289 113.906 60.043 113.906 59.9258C113.934 59.7812 113.875 59.6367 113.762 59.5234C113.672 59.4375 113.559 59.3789 113.414 59.3789C113.387 59.3789 113.387 59.3789 113.355 59.3789C113.242 59.3789 113.008 59.4062 113.008 59.4062C112.723 59.4375 112.488 59.4648 112.348 59.4922C111.25 59.668 110.18 59.7812 109.141 59.8984C107.844 60.043 106.602 60.1562 105.391 60.418C101.262 61.2812 97.9141 63.5039 96.0078 66.6523C95.5469 67.4023 95.1992 68.2109 94.9102 69.0195C95.8906 69.625 96.5 70.4609 96.6992 71.5C98.0273 71.2422 99.2695 71.6758 100.367 72.7695L100.395 72.8008L100.426 72.8281L100.453 72.8594C101.578 73.9844 102.012 75.2266 101.754 76.5547ZM94.9688 104.207C95.2305 105.043 95.6055 105.82 96.0664 106.574C97.9727 109.746 101.32 111.969 105.445 112.809C106.66 113.066 107.902 113.184 109.199 113.328C110.238 113.441 111.336 113.531 112.402 113.73C112.547 113.762 112.777 113.789 113.066 113.816L113.387 113.848C113.414 113.848 113.414 113.848 113.441 113.848C113.559 113.848 113.703 113.789 113.789 113.703C113.906 113.586 113.934 113.441 113.934 113.297C113.934 113.184 113.906 113.098 113.906 112.98C113.875 112.691 113.848 112.434 113.816 112.289C113.645 111.191 113.531 110.125 113.414 109.086C113.27 107.785 113.152 106.543 112.895 105.332C112.027 101.203 109.805 97.8555 106.66 95.9492C105.91 95.4883 105.102 95.1406 104.293 94.8516C103.687 95.8359 102.848 96.4414 101.809 96.6445C102.07 97.9727 101.637 99.2109 100.539 100.309L100.512 100.336L100.48 100.367L100.453 100.395C99.3555 101.492 98.1133 101.926 96.7891 101.664C96.5273 102.793 95.9219 103.629 94.9688 104.207ZM110.355 94.4766C113.098 94.4766 115.895 93.582 118.465 91.9102C119.504 91.2461 120.457 90.4375 121.469 89.6289C122.277 88.9648 123.113 88.2734 124.008 87.6367C124.121 87.5508 124.324 87.4062 124.555 87.2031L124.816 87.0039C124.93 86.9141 124.988 86.7695 124.988 86.625C124.988 86.4844 124.93 86.3398 124.816 86.25L124.555 86.0508C124.324 85.875 124.121 85.7305 124.008 85.6445C123.113 85.0117 122.277 84.3164 121.469 83.6523C120.457 82.8164 119.477 82.0391 118.465 81.375C115.895 79.6992 113.098 78.8047 110.355 78.8047C109.344 78.8047 108.363 78.918 107.41 79.1523C106.574 79.3516 105.734 79.6719 104.957 80.0469C105.215 81.1406 105.07 82.1797 104.465 83.0781C105.59 83.8281 106.141 85.0117 106.141 86.5703V86.5977V86.625V86.6562C106.141 88.2148 105.562 89.3672 104.465 90.1484C105.07 91.043 105.215 92.082 104.957 93.1797C105.734 93.582 106.543 93.8711 107.41 94.0742C108.363 94.3633 109.371 94.4766 110.355 94.4766ZM47.8047 60.6484C48.3242 61.918 49.0742 63.1875 49.9961 64.4023C50.6602 63.3047 51.3516 62.2656 52.1055 61.2539C50.6328 60.8516 49.1875 60.6172 47.8047 60.6484ZM52.1602 46.418C51.2656 45.8398 50.3437 45.3789 49.4492 45.0898C48.0039 44.6289 47.0234 44.4258 45.9844 44.2227C45.3203 44.0781 44.6289 43.9648 43.7891 43.7344C43.9922 44.5703 44.1367 45.2617 44.2812 45.9258C44.4844 46.9648 44.6836 47.9453 45.1484 49.3906C45.4375 50.2578 45.8984 51.207 46.4766 52.1055C47.082 51.0352 47.8594 49.9961 48.8711 48.9883C48.8984 48.957 48.9297 48.9297 48.9297 48.9297L48.9883 48.8711C49.0156 48.8437 49.0156 48.8438 49.043 48.8125C50.0273 47.8047 51.0664 46.9961 52.1602 46.418ZM45.8672 60.8203C43.2422 61.3398 40.9922 62.9297 39.4883 66.0469L47.4258 69.3359C47.918 68.2383 48.4375 67.1719 49.0156 66.1328C47.6289 64.4297 46.5312 62.6406 45.8672 60.8203ZM38.7695 67.8047C37.6406 71.0664 38.1055 73.7813 39.6055 76.0039C41.3672 75.1953 43.3867 74.707 45.5508 74.4727C45.8984 73.3203 46.2734 72.1953 46.707 71.0977L38.7695 67.8047ZM45.0039 76.4102C43.4727 76.6094 42.0586 76.957 40.8164 77.5039C41.7695 78.4883 42.9531 79.3516 44.2812 80.1328C44.4531 78.8633 44.7148 77.6211 45.0039 76.4102ZM44.2812 93.1211C42.9531 93.9023 41.7695 94.7656 40.8164 95.75C42.0859 96.2969 43.5 96.6445 45.0039 96.8438C44.7148 95.6328 44.4531 94.3906 44.2812 93.1211ZM38.7695 105.445L46.707 102.156C46.2734 101.059 45.8984 99.9336 45.5508 98.7773C43.3867 98.5469 41.3359 98.0586 39.6055 97.25C38.0742 99.4727 37.6133 102.184 38.7695 105.445ZM39.4883 107.207C40.9922 110.324 43.2422 111.914 45.8672 112.434C46.5312 110.613 47.6289 108.852 49.0156 107.148C48.4375 106.109 47.918 105.043 47.4258 103.945L39.4883 107.207ZM47.8047 112.605C49.1875 112.605 50.6328 112.402 52.1328 112C51.3828 110.988 50.6602 109.922 50.0273 108.852C49.0742 110.066 48.3242 111.336 47.8047 112.605ZM45.1172 123.863C44.6562 125.305 44.4531 126.289 44.2539 127.328C44.1094 127.992 43.9922 128.684 43.7617 129.52C44.5977 129.32 45.293 129.176 45.957 129.031C46.9961 128.828 47.9766 128.625 49.418 128.164C50.2852 127.875 51.2383 127.414 52.1328 126.836C51.0664 126.23 50.0273 125.449 49.0156 124.441C48.9883 124.41 48.957 124.383 48.957 124.383L48.8984 124.324C48.8711 124.297 48.8711 124.297 48.8438 124.266C47.832 123.258 47.0508 122.219 46.4453 121.148C45.8984 122.043 45.4062 122.969 45.1172 123.863ZM121.238 112C122.738 112.402 124.18 112.605 125.566 112.605C125.047 111.336 124.297 110.066 123.371 108.852C122.707 109.949 122.016 110.988 121.238 112ZM121.207 126.836C122.102 127.414 123.027 127.875 123.922 128.164C125.363 128.625 126.344 128.828 127.383 129.031C128.047 129.176 128.742 129.289 129.578 129.52C129.375 128.684 129.23 127.992 129.086 127.328C128.887 126.289 128.684 125.305 128.223 123.863C127.934 122.996 127.473 122.043 126.895 121.148C126.289 122.219 125.508 123.258 124.5 124.266C124.469 124.297 124.441 124.324 124.441 124.324L124.383 124.383C124.355 124.41 124.355 124.41 124.324 124.441C123.344 125.449 122.305 126.258 121.207 126.836ZM127.5 112.434C130.125 111.914 132.379 110.324 133.879 107.207L125.941 103.918C125.449 105.016 124.93 106.082 124.355 107.121C125.738 108.824 126.836 110.613 127.5 112.434ZM134.602 105.445C135.727 102.184 135.266 99.4727 133.766 97.25C132.004 98.0586 129.984 98.5469 127.816 98.7773C127.473 99.9336 127.098 101.059 126.664 102.156L134.602 105.445ZM128.367 96.8438C129.895 96.6445 131.309 96.2969 132.551 95.75C131.598 94.7656 130.414 93.9023 129.086 93.1211C128.914 94.3906 128.656 95.6328 128.367 96.8438ZM129.086 80.1328C130.414 79.3516 131.598 78.4883 132.551 77.5039C131.281 76.957 129.867 76.6094 128.367 76.4102C128.656 77.6211 128.914 78.8633 129.086 80.1328ZM134.602 67.8047L126.664 71.0977C127.098 72.1953 127.473 73.3203 127.816 74.4727C129.984 74.707 132.031 75.1953 133.766 76.0039C135.293 73.7813 135.754 71.0664 134.602 67.8047ZM103.977 47.3711C105.07 47.8594 106.141 48.3789 107.18 48.957C108.883 47.5703 110.645 46.4766 112.461 45.8125C111.941 43.1836 110.355 40.9336 107.238 39.4336L103.977 47.3711ZM97.3086 39.5195C98.1133 41.2773 98.6055 43.3008 98.8359 45.4648C99.9922 45.8125 101.117 46.1875 102.215 46.6211L105.504 38.6797C102.242 37.5547 99.5312 38.0156 97.3086 39.5195ZM71.7305 36.1992C73.5781 36.2578 75.3398 36.8359 76.957 37.875C76.957 37.875 76.9844 37.875 76.9844 37.9023C76.9844 37.9023 76.9844 37.875 77.0156 37.875C78.0547 36.3711 79.3242 35.2461 80.8828 34.4688C81.1133 32.9375 81.5742 31.4062 82.1797 30.1953C83.3633 27.8555 84.2031 26.9922 85.3008 25.0859C86.0195 23.875 86.6836 23.1797 86.6836 21.7383C86.6836 23.1797 87.3203 23.875 88.0703 25.0859C89.1953 26.9609 90.0039 27.8555 91.1875 30.1953C91.793 31.4062 92.2539 32.9375 92.4883 34.4688C94.0469 35.2461 95.3437 36.3711 96.3555 37.875C96.3555 37.875 96.3555 37.9023 96.3828 37.9023C96.3828 37.9023 96.4141 37.9023 96.4141 37.875C98.0273 36.8047 99.7891 36.2578 101.637 36.1992C101.234 31.5234 99.5586 26.7891 96.6445 22.3438C95.2852 20.293 93.6992 18.332 92.0234 16.2812C90.668 14.6094 89.2539 12.875 87.9258 11.0273C87.7812 10.8281 87.4336 10.3945 87.0898 9.92969C86.9453 9.75781 86.8281 9.58594 86.6836 9.41016C86.5703 9.58594 86.4258 9.75781 86.2812 9.92969C85.9336 10.3945 85.5859 10.7969 85.4414 11.0273C84.1172 12.875 82.6992 14.6094 81.3438 16.2812C79.6719 18.332 78.082 20.293 76.7266 22.3438C73.8398 26.7617 72.1367 31.5234 71.7305 36.1992ZM67.8633 38.7109L71.1562 46.6484C72.25 46.2148 73.3789 45.8398 74.5312 45.4922C74.7617 43.3281 75.2539 41.2773 76.0625 39.5469C73.8398 38.0156 71.125 37.5547 67.8633 38.7109ZM60.8789 45.8125C62.6992 46.4766 64.457 47.5703 66.1602 48.957C67.1992 48.3789 68.2695 47.8594 69.3672 47.3711L66.0742 39.4336C62.9844 40.9336 61.3984 43.1836 60.8789 45.8125ZM40.4414 61.543C41.8008 60.2734 43.4141 59.4375 45.3203 59.0312H45.3477V59.0039C45.0039 57.2148 45.1172 55.5117 45.6953 53.8633C44.7734 52.625 44.0234 51.207 43.5898 49.9102C42.7812 47.3984 42.75 46.2148 42.2031 44.0781C41.8555 42.6953 41.8281 41.7695 40.7891 40.7305C41.8281 41.7695 42.75 41.7695 44.1367 42.1445C46.2422 42.6953 47.457 42.7227 49.9688 43.5312C51.2656 43.9336 52.6523 44.7148 53.9219 45.6367C55.5664 45.0898 57.2695 44.9727 59.0586 45.293H59.0898V45.2617C59.4922 43.3867 60.332 41.7422 61.6016 40.3828C58.0195 37.3555 53.4609 35.1875 48.2656 34.1211C45.8672 33.6289 43.3594 33.3711 40.7305 33.1094C38.5664 32.8789 36.3437 32.6758 34.1211 32.3008C33.8594 32.2734 33.3398 32.1875 32.7656 32.1289C32.5312 32.1016 32.332 32.0703 32.1289 32.043C32.1563 32.2461 32.1875 32.4766 32.2148 32.6758C32.2734 33.2539 32.3594 33.7734 32.3906 34.0352C32.7656 36.2852 32.9961 38.5078 33.1953 40.6445C33.457 43.3008 33.7148 45.7812 34.207 48.1797C35.2734 53.4023 37.4414 57.9336 40.4414 61.543ZM37.9297 96.3555C37.9297 96.3555 37.9297 96.3242 37.9609 96.3242C37.9609 96.3242 37.9297 96.3242 37.9297 96.2969C36.4297 95.2578 35.3047 93.9883 34.5234 92.4297C32.9961 92.1992 31.4648 91.7344 30.2539 91.1289C27.9141 89.9453 27.0469 89.1094 25.1445 88.0117C23.9297 87.2891 23.2383 86.625 21.7969 86.625C23.2383 86.625 23.9297 85.9922 25.1445 85.2422C27.0195 84.1172 27.9141 83.3086 30.2539 82.125C31.4648 81.5195 32.9961 81.0547 34.5234 80.8242C35.3047 79.2656 36.4297 77.9687 37.9297 76.957C37.9297 76.957 37.9609 76.957 37.9609 76.9297C37.9609 76.9297 37.9609 76.8984 37.9297 76.8984C36.8633 75.2812 36.3125 73.5234 36.2578 71.6758C31.582 72.0781 26.8477 73.7539 22.4023 76.668C20.3516 78.0234 18.3906 79.6133 16.3398 81.2852C14.6641 82.6445 12.9336 84.0586 11.0859 85.3867C10.8828 85.5312 10.4492 85.875 9.98828 86.2227C9.81641 86.3672 9.64453 86.4844 9.46875 86.625C9.64453 86.7422 9.81641 86.8867 9.98828 87.0312C10.4492 87.3789 10.8555 87.7227 11.0859 87.8672C12.9336 89.1953 14.6641 90.6094 16.3398 91.9688C18.3906 93.6406 20.3516 95.2305 22.4023 96.5859C26.8477 99.5 31.582 101.176 36.2578 101.578C36.3125 99.7031 36.8633 97.9727 37.9297 96.3555ZM33.3125 86.6836C33.3125 86.6562 33.3125 86.5977 33.3125 86.5977C33.3125 86.5703 33.3125 86.5391 33.3125 86.5117C33.3125 85.0977 33.4844 83.7969 33.832 82.6133C32.793 82.8437 31.8125 83.1641 30.9727 83.5977C29.6172 84.2891 28.7812 84.8359 27.9141 85.4414C27.3359 85.8203 26.7617 86.2227 26.0078 86.6562C26.7617 87.0898 27.3359 87.4922 27.9141 87.8672C28.8086 88.4453 29.6172 89.0234 30.9727 89.7148C31.8125 90.1484 32.793 90.4648 33.832 90.6953C33.4844 89.5117 33.3125 88.2148 33.3125 86.8008C33.3125 86.7422 33.3125 86.6836 33.3125 86.6836ZM61.6016 132.867C60.332 131.512 59.4922 129.895 59.0898 127.992V127.961H59.0586C57.2695 128.309 55.5664 128.191 53.9219 127.617C52.6797 128.539 51.2656 129.289 49.9688 129.723C47.457 130.531 46.2734 130.559 44.1367 131.109C42.75 131.453 41.8281 131.484 40.7891 132.523C41.8281 131.484 41.8281 130.559 42.2031 129.176C42.75 127.066 42.7812 125.855 43.5898 123.344C43.9922 122.043 44.7734 120.66 45.6953 119.391C45.1484 117.742 45.0313 116.039 45.3477 114.25V114.223H45.3203C43.4453 113.816 41.8008 112.98 40.4414 111.711C37.4102 115.289 35.2461 119.852 34.1797 125.047C33.6875 127.441 33.4297 129.953 33.168 132.582C32.9375 134.746 32.7344 136.969 32.3594 139.191C32.332 139.449 32.2461 139.969 32.1875 140.547C32.1562 140.777 32.1289 140.98 32.1016 141.184C32.3008 141.152 32.5312 141.125 32.7344 141.098C33.3125 141.039 33.832 140.953 34.0938 140.922C36.3438 140.547 38.5664 140.316 40.7031 140.113C43.3594 139.855 45.8398 139.594 48.2344 139.105C53.4609 138.035 57.9922 135.871 61.6016 132.867ZM69.3945 125.883C68.2969 125.395 67.2305 124.875 66.1914 124.297C64.4883 125.68 62.7266 126.777 60.9062 127.441C61.4258 130.07 63.0156 132.32 66.1328 133.82L69.3945 125.883ZM76.0625 133.734C75.2539 131.973 74.7617 129.953 74.5312 127.789C73.3789 127.441 72.25 127.066 71.1562 126.633L67.8633 134.543C71.125 135.699 73.8398 135.234 76.0625 133.734ZM101.637 137.055C99.7891 136.996 98.0273 136.418 96.4141 135.379C96.4141 135.379 96.3828 135.379 96.3828 135.352C96.3828 135.352 96.3828 135.379 96.3555 135.379C95.3164 136.883 94.0469 138.008 92.4883 138.785C92.2539 140.316 91.793 141.848 91.1875 143.059C90.0039 145.398 89.168 146.262 88.0703 148.168C87.3477 149.379 86.6836 150.074 86.6836 151.516C86.6836 150.074 86.0508 149.379 85.3008 148.168C84.1719 146.293 83.3633 145.398 82.1797 143.059C81.5742 141.848 81.1133 140.316 80.8828 138.785C79.3242 138.008 78.0234 136.883 77.0156 135.379C77.0156 135.379 77.0156 135.352 76.9844 135.352C76.9844 135.352 76.957 135.352 76.957 135.379C75.3398 136.449 73.5781 136.996 71.7305 137.055C72.1367 141.73 73.8125 146.465 76.7266 150.91C78.082 152.961 79.6719 154.922 81.3438 156.973C82.6992 158.645 84.1172 160.379 85.4414 162.227C85.5859 162.426 85.9336 162.859 86.2812 163.32C86.4258 163.496 86.5391 163.668 86.6836 163.84C86.8008 163.668 86.9453 163.496 87.0898 163.32C87.4336 162.859 87.7812 162.457 87.9258 162.227C89.2539 160.379 90.668 158.645 92.0234 156.973C93.6992 154.922 95.2852 152.961 96.6445 150.91C99.5312 146.492 101.234 141.73 101.637 137.055ZM105.504 134.543L102.215 126.605C101.117 127.039 99.9922 127.414 98.8359 127.762C98.6055 129.926 98.1133 131.973 97.3086 133.707C99.5312 135.234 102.242 135.699 105.504 134.543ZM112.488 127.441C110.672 126.777 108.91 125.68 107.207 124.297C106.168 124.875 105.102 125.395 104.004 125.883L107.293 133.82C110.383 132.32 111.969 130.07 112.488 127.441ZM132.926 111.711C131.57 112.98 129.953 113.816 128.047 114.223H128.02V114.25C128.367 116.039 128.25 117.742 127.672 119.391C128.598 120.629 129.348 122.043 129.781 123.344C130.59 125.855 130.617 127.039 131.168 129.176C131.512 130.559 131.543 131.484 132.582 132.523C131.543 131.484 130.617 131.484 129.23 131.109C127.125 130.559 125.914 130.531 123.402 129.723C122.102 129.32 120.715 128.539 119.445 127.617C117.801 128.164 116.098 128.281 114.309 127.961H114.281V127.992C113.875 129.867 113.039 131.512 111.77 132.867C115.348 135.898 119.91 138.066 125.105 139.133C127.5 139.625 130.012 139.883 132.637 140.145C134.805 140.375 137.027 140.578 139.25 140.953C139.508 140.98 140.027 141.066 140.605 141.125C140.836 141.152 141.039 141.184 141.238 141.211C141.211 141.008 141.184 140.777 141.152 140.578C141.098 140 141.008 139.48 140.98 139.219C140.605 136.969 140.375 134.746 140.172 132.609C139.914 129.953 139.652 127.473 139.16 125.074C138.094 119.852 135.93 115.32 132.926 111.711ZM137.113 101.578C141.789 101.176 146.523 99.5 150.969 96.5859C153.016 95.2305 154.98 93.6406 157.031 91.9688C158.703 90.6094 160.438 89.1953 162.281 87.8672C162.484 87.7227 162.918 87.3789 163.379 87.0312C163.555 86.8867 163.727 86.7695 163.898 86.625C163.727 86.5117 163.555 86.3672 163.379 86.2227C162.918 85.875 162.516 85.5312 162.281 85.3867C160.438 84.0586 158.703 82.6445 157.031 81.2852C154.98 79.6133 153.016 78.0234 150.969 76.668C146.523 73.7539 141.789 72.0781 137.113 71.6758C137.055 73.5234 136.477 75.2812 135.438 76.8984C135.438 76.8984 135.438 76.9297 135.41 76.9297C135.41 76.9297 135.438 76.9297 135.438 76.957C136.938 77.9961 138.066 79.2656 138.844 80.8242C140.375 81.0547 141.902 81.5195 143.117 82.125C145.453 83.3086 146.32 84.1445 148.227 85.2422C149.437 85.9609 150.129 86.625 151.574 86.625C150.129 86.625 149.437 87.2617 148.227 88.0117C146.348 89.1367 145.453 89.9453 143.117 91.1289C141.902 91.7344 140.375 92.1992 138.844 92.4297C138.066 93.9883 136.938 95.2852 135.438 96.2969C135.438 96.2969 135.41 96.2969 135.41 96.3242C135.41 96.3242 135.41 96.3555 135.438 96.3555C136.508 97.9727 137.055 99.7031 137.113 101.578ZM140.055 86.5703C140.055 86.5977 140.055 86.6562 140.055 86.6562C140.055 86.6836 140.055 86.7148 140.055 86.7422C140.055 88.1562 139.883 89.457 139.535 90.6406C140.578 90.4062 141.559 90.0898 142.395 89.6562C143.75 88.9648 144.59 88.418 145.453 87.8086C146.031 87.4336 146.609 87.0313 147.359 86.5977C146.609 86.1641 146.031 85.7617 145.453 85.3867C144.559 84.8086 143.75 84.2305 142.395 83.5391C141.559 83.1055 140.578 82.7891 139.535 82.5586C139.883 83.7422 140.055 85.0391 140.055 86.4531C140.055 86.5117 140.055 86.5703 140.055 86.5703ZM45.2031 26.5859C45.582 26.5859 45.957 26.4727 46.3008 26.2695C46.7344 25.9805 47.0234 25.5195 47.1406 25.0273C47.2539 24.5078 47.1406 23.9883 46.8516 23.5547C46.4766 23.0078 45.8672 22.6914 45.2031 22.6914C44.8281 22.6914 44.4258 22.8047 44.1094 23.0352C43.2148 23.6406 42.9531 24.8555 43.5586 25.75C43.9336 26.2422 44.543 26.5859 45.2031 26.5859ZM128.164 146.668C127.789 146.668 127.414 146.781 127.066 146.984C126.633 147.273 126.344 147.707 126.23 148.227C126.113 148.746 126.23 149.266 126.52 149.699C126.895 150.246 127.5 150.562 128.164 150.562C128.539 150.562 128.945 150.449 129.262 150.219C130.156 149.609 130.414 148.398 129.809 147.504C129.434 147.012 128.828 146.668 128.164 146.668ZM146.781 44.7734C146.668 45.293 146.781 45.8125 147.07 46.2422C147.445 46.793 148.051 47.1094 148.715 47.1094C149.09 47.1094 149.465 46.9961 149.812 46.793C150.707 46.1875 150.969 44.9727 150.363 44.0508C149.984 43.5 149.379 43.1836 148.715 43.1836C148.34 43.1836 147.937 43.3008 147.621 43.5312C147.187 43.7891 146.867 44.2539 146.781 44.7734ZM26.5859 128.48C26.7031 127.961 26.5859 127.441 26.2969 127.008C25.9219 126.461 25.3164 126.145 24.6523 126.145C24.2773 126.145 23.875 126.258 23.5547 126.461C22.6602 127.066 22.4023 128.281 23.0078 129.203C23.3828 129.75 23.9883 130.07 24.6523 130.07C25.0273 130.07 25.4336 129.953 25.75 129.723C26.2109 129.465 26.5 129 26.5859 128.48ZM100.828 15.3594C100.945 15.3867 101.09 15.3867 101.203 15.3867C102.129 15.3867 102.965 14.7227 103.137 13.8008C103.34 12.7305 102.648 11.6914 101.578 11.4883C101.465 11.4609 101.32 11.4609 101.203 11.4609C100.281 11.4609 99.4727 12.125 99.2695 13.0508C99.1562 13.5703 99.2695 14.0898 99.5586 14.5195C99.875 14.9844 100.309 15.2734 100.828 15.3594ZM72.5391 157.895C72.4258 157.867 72.2812 157.867 72.1641 157.867C71.2422 157.867 70.4336 158.531 70.2305 159.453C70.1172 159.973 70.2305 160.492 70.5195 160.926C70.8086 161.359 71.2695 161.648 71.7891 161.762C71.9062 161.793 72.0508 161.793 72.1641 161.793C73.0898 161.793 73.8984 161.129 74.0977 160.203C74.2148 159.684 74.0977 159.164 73.8125 158.734C73.5234 158.301 73.0586 157.98 72.5391 157.895ZM13.1055 74.043C13.2227 74.0703 13.3672 74.0703 13.4805 74.0703C14.4062 74.0703 15.2148 73.4062 15.4141 72.4844C15.5312 71.9648 15.4141 71.4453 15.1289 71.0117C14.8398 70.5781 14.4062 70.2891 13.8867 70.1719C13.7695 70.1445 13.625 70.1445 13.5117 70.1445C12.5859 70.1445 11.7773 70.8086 11.5781 71.7305C11.4609 72.25 11.5781 72.7695 11.8672 73.2031C12.1523 73.6367 12.5859 73.9258 13.1055 74.043ZM23.5273 46.8516C23.8437 47.0508 24.2188 47.168 24.625 47.168C25.2891 47.168 25.8945 46.8516 26.2695 46.3008C26.5586 45.8672 26.6719 45.3477 26.5586 44.8281C26.4414 44.3086 26.1523 43.8789 25.7227 43.5898C25.4023 43.3867 25.0273 43.2695 24.625 43.2695C23.9609 43.2695 23.3555 43.5898 22.9805 44.1367C22.6914 44.5703 22.5742 45.0898 22.6914 45.6094C22.8047 46.1016 23.0937 46.5625 23.5273 46.8516ZM149.844 126.402C149.523 126.203 149.148 126.086 148.746 126.086C148.082 126.086 147.477 126.402 147.102 126.953C146.812 127.383 146.695 127.902 146.812 128.426C146.926 128.945 147.215 129.375 147.648 129.664C147.965 129.867 148.34 129.984 148.746 129.984C149.41 129.984 150.016 129.664 150.391 129.117C150.68 128.684 150.793 128.164 150.68 127.645C150.562 127.152 150.273 126.691 149.844 126.402ZM127.008 26.2109C127.328 26.4414 127.703 26.5273 128.105 26.5273C128.77 26.5273 129.375 26.2109 129.75 25.6641C130.039 25.2305 130.156 24.7109 130.039 24.1914C129.926 23.6719 129.637 23.2383 129.203 22.9492C128.887 22.7187 128.512 22.6328 128.105 22.6328C127.441 22.6328 126.836 22.9492 126.461 23.5C126.172 23.9297 126.059 24.4492 126.172 24.9688C126.289 25.4609 126.578 25.9219 127.008 26.2109ZM46.3594 147.043C46.043 146.84 45.668 146.723 45.2617 146.723C44.5977 146.723 43.9922 147.043 43.6172 147.59C43.3281 148.023 43.2148 148.543 43.3281 149.062C43.4453 149.582 43.7344 150.016 44.1641 150.305C44.4844 150.504 44.8594 150.621 45.2617 150.621C45.9258 150.621 46.5312 150.305 46.9062 149.754C47.1953 149.324 47.3125 148.805 47.1953 148.285C47.082 147.793 46.793 147.332 46.3594 147.043ZM72.0781 15.4141C72.1953 15.4141 72.3398 15.4141 72.4531 15.3867C73.5234 15.1836 74.2148 14.1445 73.9844 13.0781C73.8125 12.1523 73.0039 11.4883 72.0508 11.4883C71.9336 11.4883 71.7891 11.4883 71.6758 11.5195C70.6055 11.7227 69.9141 12.7617 70.1445 13.8281C70.3477 14.7539 71.1562 15.4141 72.0781 15.4141ZM101.289 157.836C101.176 157.836 101.031 157.836 100.914 157.867C100.395 157.98 99.9609 158.27 99.6758 158.703C99.3867 159.137 99.2695 159.656 99.3867 160.176C99.5586 161.098 100.367 161.762 101.32 161.762C101.434 161.762 101.578 161.762 101.695 161.734C102.762 161.531 103.457 160.492 103.223 159.426C103.023 158.5 102.215 157.836 101.289 157.836ZM15.4453 100.828C15.2734 99.9062 14.4336 99.2422 13.5117 99.2422C13.3945 99.2422 13.25 99.2422 13.1367 99.2695C12.0664 99.4727 11.375 100.512 11.6055 101.578C11.7773 102.504 12.6172 103.168 13.5391 103.168C13.6562 103.168 13.8008 103.168 13.9141 103.137C14.9531 102.937 15.6484 101.898 15.4453 100.828ZM55.3359 28.0586C56.1172 27.6562 56.4062 26.6719 56 25.8633C55.5977 25.0859 54.6133 24.7969 53.8086 25.2031C53.0273 25.6328 52.7383 26.6172 53.1445 27.3945C53.5742 28.2031 54.5586 28.4922 55.3359 28.0586ZM118.004 145.195C117.223 145.629 116.934 146.582 117.34 147.387C117.773 148.168 118.727 148.457 119.535 148.051C120.313 147.621 120.629 146.668 120.195 145.859C119.793 145.051 118.813 144.762 118.004 145.195ZM145.918 53.1133C145.137 53.5469 144.82 54.5 145.254 55.3086C145.684 56.0859 146.637 56.375 147.445 55.9727C148.227 55.5391 148.516 54.5586 148.109 53.7773C147.676 53 146.695 52.6797 145.918 53.1133ZM27.4531 120.141C28.2305 119.707 28.5508 118.727 28.1172 117.945C27.7109 117.168 26.7305 116.879 25.9219 117.281C25.1445 117.688 24.8555 118.695 25.2578 119.477C25.6914 120.285 26.6719 120.574 27.4531 120.141ZM105.938 23.0664C106.773 23.3242 107.699 22.8359 107.93 21.9961C108.187 21.1602 107.699 20.2383 106.863 19.9766C105.996 19.7187 105.102 20.207 104.84 21.043C104.609 21.9102 105.07 22.8047 105.938 23.0664ZM67.4297 150.188C66.5937 149.93 65.6719 150.418 65.4102 151.258C65.1523 152.121 65.6406 153.016 66.4805 153.277C67.3164 153.535 68.2383 153.047 68.5 152.207C68.7578 151.344 68.2695 150.449 67.4297 150.188ZM150.246 105.879C149.984 106.719 150.477 107.641 151.312 107.902C152.18 108.16 153.074 107.668 153.336 106.832C153.594 105.996 153.105 105.07 152.266 104.812C151.402 104.551 150.504 105.016 150.246 105.879ZM23.1211 67.375C23.3828 66.5352 22.8906 65.6133 22.0547 65.3516C21.1875 65.0937 20.293 65.582 20.0352 66.4219C19.7734 67.2852 20.2656 68.1836 21.1016 68.4414C21.9687 68.7031 22.8633 68.2383 23.1211 67.375ZM25.2578 53.8359C24.8242 54.6133 25.1445 55.5977 25.9219 56.0312C26.7031 56.4336 27.6836 56.1445 28.0859 55.3672C28.5195 54.5859 28.2031 53.6055 27.4258 53.1719C26.6445 52.7383 25.6641 53.0273 25.2578 53.8359ZM148.109 119.418C148.543 118.637 148.227 117.656 147.445 117.223C146.668 116.82 145.684 117.109 145.254 117.887C144.848 118.668 145.137 119.648 145.918 120.055C146.723 120.516 147.707 120.227 148.109 119.418ZM117.312 25.8633C116.906 26.6445 117.195 27.625 117.973 28.0586C118.754 28.4922 119.734 28.1758 120.168 27.3945C120.602 26.6172 120.285 25.6328 119.504 25.2031C118.695 24.7695 117.715 25.0859 117.312 25.8633ZM56.0586 147.387C56.4922 146.609 56.1719 145.629 55.3945 145.195C54.6133 144.789 53.6328 145.078 53.1992 145.859C52.7969 146.637 53.0859 147.621 53.8633 148.051C54.6719 148.484 55.6523 148.195 56.0586 147.387ZM67.375 23.0938C68.2109 22.8359 68.7031 21.9414 68.4414 21.0742C68.1836 20.2383 67.2852 19.7461 66.4219 20.0039C65.582 20.2656 65.0937 21.1602 65.3516 22.0273C65.6133 22.8633 66.5352 23.3242 67.375 23.0938ZM105.996 150.188C105.129 150.449 104.668 151.344 104.926 152.207C105.187 153.047 106.082 153.535 106.949 153.277C107.812 153.016 108.277 152.121 108.016 151.258C107.758 150.391 106.832 149.93 105.996 150.188ZM151.312 65.2969C150.477 65.5547 149.984 66.4492 150.246 67.3164C150.508 68.1523 151.402 68.6445 152.266 68.3828C153.133 68.125 153.594 67.2305 153.336 66.3633C153.074 65.5273 152.152 65.0352 151.312 65.2969ZM22.0547 107.957C22.8906 107.699 23.3828 106.805 23.1211 105.938C22.8633 105.07 21.9687 104.609 21.1016 104.871C20.2656 105.129 19.7734 106.023 20.0352 106.891C20.3242 107.727 21.2187 108.219 22.0547 107.957ZM83.8281 62.668C83.4531 61.4258 83.7422 59.4375 84.4023 58.1641C85.0117 56.9805 85.4141 56.5508 85.9922 55.5977C86.3672 54.9922 86.6836 54.6445 86.6836 53.8945C86.6836 54.6133 87.0039 54.9609 87.3789 55.5977C87.9258 56.5508 88.3594 56.9805 88.9648 58.1641C89.6289 59.4375 89.918 61.457 89.543 62.668C89.1953 63.8242 88.5312 64.9492 86.6836 64.9492C84.8359 64.9766 84.1719 63.8516 83.8281 62.668ZM84.6367 62.4375C85.0117 63.6797 85.5586 64.1406 86.6836 64.1406C87.8086 64.1406 88.3867 63.6797 88.7344 62.4375C89.0234 61.457 88.793 59.668 88.2148 58.5391C87.8672 57.8477 87.5781 57.4453 87.2891 56.9805C87.0898 56.6953 86.8867 56.4062 86.6836 56.0312C86.4531 56.4062 86.25 56.6953 86.0781 56.9805C85.7891 57.4141 85.5 57.8477 85.1562 58.5391C84.5781 59.668 84.3164 61.457 84.6367 62.4375ZM89.543 110.586C89.918 111.828 89.6289 113.816 88.9648 115.09C88.3594 116.273 87.9531 116.703 87.3789 117.656C87.0039 118.262 86.6836 118.609 86.6836 119.359C86.6836 118.637 86.3672 118.293 85.9922 117.656C85.4141 116.703 85.0117 116.273 84.4023 115.09C83.7422 113.816 83.4531 111.797 83.8281 110.586C84.1719 109.43 84.8359 108.305 86.6836 108.305C88.5312 108.277 89.1953 109.402 89.543 110.586ZM88.7344 110.816C88.3594 109.574 87.8086 109.113 86.6836 109.113C85.5586 109.113 84.9805 109.574 84.6367 110.816C84.3477 111.797 84.5781 113.586 85.1562 114.711C85.5 115.406 85.7891 115.809 86.0781 116.273C86.2812 116.559 86.4844 116.848 86.6836 117.223C86.9141 116.848 87.1172 116.559 87.2891 116.273C87.5781 115.84 87.8672 115.406 88.2148 114.711C88.793 113.586 89.0508 111.797 88.7344 110.816ZM110.645 89.4844C109.488 89.1367 108.363 88.4727 108.363 86.625C108.363 84.7812 109.488 84.1172 110.645 83.7695C111.883 83.3945 113.875 83.6836 115.145 84.3477C116.328 84.9531 116.762 85.3555 117.715 85.9336C118.32 86.3086 118.668 86.625 119.418 86.625C118.695 86.625 118.352 86.9453 117.715 87.3203C116.762 87.8672 116.328 88.3008 115.145 88.9062C113.875 89.543 111.855 89.832 110.645 89.4844ZM110.875 88.6758C111.855 88.9648 113.645 88.7344 114.77 88.1562C115.465 87.8086 115.867 87.5234 116.328 87.2344C116.617 87.0312 116.906 86.8281 117.281 86.625C116.906 86.3945 116.617 86.1953 116.328 86.0195C115.895 85.7305 115.465 85.4414 114.77 85.0977C113.645 84.5195 111.855 84.2891 110.875 84.5781C109.633 84.9531 109.172 85.5 109.172 86.625C109.172 87.7539 109.633 88.3281 110.875 88.6758ZM62.7266 83.7695C63.8828 84.1172 65.0078 84.7812 65.0078 86.625C65.0078 88.4727 63.8828 89.1367 62.7266 89.4844C61.4844 89.8594 59.4922 89.5703 58.2227 88.9062C57.0391 88.3008 56.6055 87.8984 55.6523 87.3203C55.0469 86.9453 54.7031 86.625 53.9531 86.625C54.6719 86.625 55.0195 86.3086 55.6523 85.9336C56.6055 85.3555 57.0391 84.9531 58.2227 84.3477C59.4922 83.7109 61.5156 83.4219 62.7266 83.7695ZM62.4961 84.5781C61.5156 84.2891 59.7227 84.5195 58.5977 85.0977C57.9063 85.4414 57.5 85.7305 57.0391 86.0195C56.75 86.2227 56.4609 86.4258 56.0859 86.625C56.4609 86.8594 56.75 87.0586 57.0391 87.2344C57.4727 87.5234 57.9063 87.8086 58.5977 88.1562C59.7227 88.7344 61.5156 88.9648 62.4961 88.6758C63.7383 88.3008 64.1992 87.7539 64.1992 86.625C64.1992 85.5 63.7383 84.9219 62.4961 84.5781ZM102.012 71.3008C100.715 70 101.031 68.7305 101.609 67.6641C102.215 66.5352 103.832 65.3242 105.215 64.8906C106.484 64.4883 107.094 64.457 108.16 64.1992C108.852 64.0234 109.316 63.9961 109.836 63.5039C109.316 64.0234 109.316 64.4883 109.141 65.1797C108.883 66.2461 108.852 66.8555 108.449 68.125C108.016 69.4805 106.805 71.125 105.68 71.7305C104.551 72.2812 103.312 72.6289 102.012 71.3008ZM102.59 70.7227C103.398 71.5313 104.121 71.5898 105.246 70.9805C106.141 70.4922 107.238 69.0469 107.641 67.8633C107.871 67.1445 107.988 66.6523 108.074 66.1016C108.133 65.7578 108.219 65.4102 108.305 65.0078C107.871 65.1211 107.523 65.1797 107.207 65.2383C106.687 65.3516 106.199 65.4414 105.445 65.6719C104.234 66.0742 102.82 67.1719 102.328 68.0664C101.723 69.2227 101.781 69.9414 102.59 70.7227ZM65.2383 109.055C64.543 109.227 64.082 109.258 63.5625 109.746C64.082 109.227 64.082 108.766 64.2578 108.074C64.5156 107.004 64.543 106.398 64.9492 105.129C65.3828 103.773 66.5938 102.129 67.7188 101.52C68.7891 100.945 70.0586 100.625 71.3555 101.926C72.6562 103.223 72.3398 104.496 71.7617 105.562C71.1562 106.688 69.5391 107.902 68.1523 108.332C66.9102 108.766 66.3047 108.797 65.2383 109.055ZM65.0625 108.246C65.4961 108.133 65.8438 108.074 66.1602 108.016C66.6797 107.902 67.1719 107.812 67.9219 107.582C69.1328 107.18 70.5469 106.109 71.0391 105.188C71.6445 104.031 71.5898 103.312 70.7812 102.531C69.9727 101.754 69.25 101.664 68.125 102.273C67.2305 102.762 66.1328 104.207 65.7266 105.391C65.4961 106.109 65.3828 106.602 65.2969 107.148C65.2383 107.496 65.1523 107.844 65.0625 108.246ZM101.609 105.562C101.031 104.496 100.715 103.223 102.012 101.926C103.312 100.625 104.582 100.945 105.648 101.52C106.773 102.129 107.988 103.742 108.422 105.129C108.824 106.398 108.852 107.004 109.113 108.074C109.285 108.766 109.316 109.227 109.805 109.746C109.285 109.227 108.824 109.227 108.133 109.055C107.062 108.797 106.457 108.766 105.188 108.363C103.832 107.902 102.215 106.688 101.609 105.562ZM102.328 105.188C102.82 106.082 104.262 107.18 105.445 107.582C106.168 107.812 106.66 107.93 107.207 108.016C107.555 108.074 107.902 108.16 108.305 108.246C108.187 107.812 108.133 107.469 108.074 107.148C107.957 106.629 107.871 106.141 107.641 105.391C107.238 104.176 106.168 102.762 105.246 102.273C104.09 101.664 103.367 101.723 102.59 102.531C101.781 103.312 101.723 104.031 102.328 105.188ZM71.7617 67.6914C72.3398 68.7578 72.6562 70.0273 71.3555 71.3281C70.0586 72.6289 68.7891 72.3086 67.7188 71.7305C66.5938 71.125 65.3828 69.5078 64.9492 68.125C64.543 66.8555 64.5156 66.2461 64.2578 65.1797C64.082 64.4883 64.0547 64.0234 63.5625 63.5039C64.082 64.0234 64.543 64.0234 65.2383 64.1992C66.3047 64.457 66.9102 64.4883 68.1836 64.8906C69.5391 65.3516 71.1562 66.5664 71.7617 67.6914ZM71.0391 68.0664C70.5469 67.1719 69.1055 66.0742 67.9219 65.6719C67.1992 65.4414 66.7109 65.3242 66.1602 65.2383C65.8164 65.1797 65.4688 65.0937 65.0625 65.0078C65.1797 65.4414 65.2383 65.7852 65.2969 66.1016C65.4102 66.625 65.4961 67.1133 65.7266 67.8633C66.1328 69.0781 67.1992 70.4922 68.125 70.9805C69.2773 71.5898 70 71.5313 70.7812 70.7227C71.5898 69.9414 71.6445 69.2227 71.0391 68.0664ZM96.6992 99.2422C96.125 99.1836 95.5156 99.125 94.9688 99.0117C93.4961 98.6914 92.1992 98.0273 91.2461 97.0469L92.6875 100.57C93.0352 100.512 93.4102 100.715 93.5547 101.059C93.7266 101.465 93.5273 101.953 93.1211 102.129C92.7187 102.301 92.2266 102.098 92.0547 101.695C91.9102 101.348 92.0234 100.973 92.3125 100.742L90.8711 97.2188C90.8711 98.5781 90.4375 99.9922 89.6289 101.262C89.3125 101.754 88.9375 102.215 88.5625 102.676C88.2734 103.023 87.9531 103.398 87.6953 103.773C87.6367 103.832 87.5781 103.918 87.4922 104.031C87.2031 104.406 86.9141 104.781 86.7422 105.102C86.5703 104.781 86.2812 104.406 85.9922 104.031C85.9062 103.918 85.8203 103.832 85.7891 103.773C85.5 103.398 85.2109 103.023 84.9219 102.676C84.5469 102.215 84.1719 101.754 83.8555 101.262C83.0195 99.9922 82.5859 98.6055 82.6133 97.2188L81.1719 100.742C81.4609 100.945 81.5742 101.348 81.4297 101.695C81.2578 102.098 80.7969 102.301 80.3633 102.129C79.9297 101.953 79.7578 101.492 79.9297 101.059C80.0742 100.715 80.4219 100.512 80.7969 100.57L82.2383 97.0469C81.2852 98.0273 79.9883 98.6914 78.5156 99.0117C77.9375 99.125 77.3594 99.1836 76.7852 99.2422C76.3203 99.2969 75.8594 99.3281 75.3984 99.4141C75.3125 99.4141 75.1953 99.4414 75.082 99.4727C74.5898 99.5313 74.1289 99.5859 73.7812 99.7031C73.8672 99.3555 73.9258 98.8945 74.0117 98.4023C74.043 98.2578 74.043 98.1445 74.0703 98.0586C74.1562 97.5937 74.1875 97.1055 74.2422 96.6719C74.3008 96.0938 74.3594 95.4883 74.4727 94.9414C74.793 93.4688 75.457 92.168 76.4375 91.2148L72.9141 92.6602C72.9727 93.0078 72.7695 93.3828 72.4258 93.5273C72.0195 93.6992 71.5312 93.4961 71.3555 93.0938C71.1836 92.6875 71.3867 92.1992 71.7891 92.0234C72.1367 91.8789 72.5117 91.9961 72.7422 92.2852L76.2656 90.8398C76.2344 90.8398 76.2344 90.8398 76.2344 90.8398C74.8789 90.8398 73.4922 90.4062 72.25 89.6016C71.7617 89.2812 71.3008 88.9062 70.8359 88.5312C70.4922 88.2422 70.1172 87.9258 69.7422 87.6641C69.6836 87.6094 69.5977 87.5508 69.4805 87.4648C69.1055 87.1758 68.7305 86.8867 68.4141 86.7148C68.7305 86.5391 69.1055 86.25 69.4805 85.9609C69.5977 85.875 69.6836 85.7891 69.7422 85.7617C70.1172 85.4727 70.4922 85.1836 70.8359 84.8945C71.3008 84.5195 71.7617 84.1445 72.25 83.8281C73.4922 83.0195 74.8789 82.5859 76.2344 82.5859H76.2656L72.7422 81.1406C72.5391 81.4297 72.1367 81.5469 71.7891 81.4023C71.3867 81.2305 71.1836 80.7656 71.3555 80.3359C71.5312 79.9023 71.9922 79.7266 72.4258 79.9023C72.7695 80.0469 72.9727 80.3906 72.9141 80.7656L76.4375 82.2109C75.457 81.2578 74.793 79.957 74.4727 78.4883C74.3594 77.9102 74.3008 77.3047 74.2422 76.7539C74.1875 76.293 74.1562 75.832 74.0703 75.3711C74.0703 75.2812 74.043 75.168 74.0117 75.0234C73.9531 74.5312 73.8984 74.0703 73.7812 73.7227C74.1289 73.8125 74.5898 73.8672 75.082 73.9531C75.2266 73.9844 75.3398 73.9844 75.4258 74.0117C75.8906 74.0977 76.3789 74.1289 76.8125 74.1875C77.3906 74.2422 77.9961 74.3008 78.543 74.418C80.0156 74.7344 81.3164 75.3984 82.2695 76.3789L80.8242 72.8594C80.4766 72.9141 80.1016 72.7148 79.957 72.3672C79.7852 71.9648 79.9883 71.4727 80.3906 71.3008C80.7969 71.125 81.2852 71.3281 81.4609 71.7305C81.6055 72.0781 81.4883 72.4531 81.1992 72.6836L82.6445 76.207C82.6445 74.8516 83.0781 73.4336 83.8828 72.1641C84.2031 71.6758 84.5781 71.2109 84.9531 70.75C85.2422 70.4062 85.5586 70.0273 85.8203 69.6523C85.875 69.5977 85.9336 69.5078 86.0195 69.3945C86.3086 69.0195 86.5977 68.6445 86.7695 68.3242C86.9453 68.6445 87.2344 69.0195 87.5234 69.3945C87.6094 69.5078 87.6953 69.5977 87.7227 69.6523C88.0117 70.0273 88.3008 70.4062 88.5898 70.75C88.9648 71.2109 89.3398 71.6758 89.6562 72.1641C90.4961 73.4336 90.9297 74.8203 90.8984 76.207L92.3438 72.6836C92.0547 72.4844 91.9375 72.0781 92.082 71.7305C92.2539 71.3281 92.7187 71.125 93.1484 71.3008C93.582 71.4727 93.7578 71.9336 93.582 72.3672C93.4375 72.7148 93.0938 72.9141 92.7188 72.8594L91.2734 76.3789C92.2266 75.3984 93.5273 74.7344 94.9961 74.418C95.5742 74.3008 96.1797 74.2422 96.7305 74.1875C97.1914 74.1289 97.6523 74.0977 98.1133 74.0117C98.2031 74.0117 98.3164 73.9844 98.4609 73.9531C98.9531 73.8984 99.4141 73.8398 99.7617 73.7227C99.6758 74.0703 99.6172 74.5312 99.5312 75.0234C99.5 75.168 99.5 75.2812 99.4727 75.3711C99.3867 75.832 99.3555 76.3203 99.2969 76.7539C99.2422 77.332 99.1836 77.9375 99.0664 78.4883C98.75 79.957 98.0859 81.2578 97.1055 82.2109L100.625 80.7656C100.57 80.4219 100.77 80.0469 101.117 79.9023C101.52 79.7266 102.012 79.9297 102.184 80.3359C102.359 80.7383 102.156 81.2305 101.754 81.4023C101.406 81.5469 101.031 81.4297 100.801 81.1406L97.2773 82.5859C97.3086 82.5859 97.3086 82.5859 97.3086 82.5859C98.6641 82.5859 100.051 83.0195 101.289 83.8281C101.781 84.1445 102.242 84.5195 102.703 84.8945C103.051 85.1836 103.426 85.5 103.801 85.7617C103.859 85.8203 103.945 85.875 104.062 85.9609C104.438 86.25 104.813 86.5391 105.129 86.7148C104.813 86.8867 104.438 87.1758 104.062 87.4648C103.945 87.5508 103.859 87.6367 103.801 87.6641C103.426 87.9531 103.051 88.2422 102.703 88.5312C102.242 88.9062 101.781 89.2812 101.289 89.6016C100.051 90.4062 98.6641 90.8398 97.3086 90.8398H97.2773L100.801 92.2852C101 91.9961 101.406 91.8789 101.754 92.0234C102.156 92.1992 102.359 92.6602 102.184 93.0938C102.012 93.5273 101.551 93.6992 101.117 93.5273C100.77 93.3828 100.57 93.0352 100.625 92.6602L97.1055 91.2148C98.0859 92.168 98.75 93.4688 99.0664 94.9414C99.1836 95.5156 99.2422 96.0938 99.2969 96.6719C99.3555 97.1328 99.3867 97.5937 99.4727 98.0586C99.4727 98.1445 99.5 98.2578 99.5312 98.4023C99.5859 98.8945 99.6445 99.3555 99.7617 99.7031C99.4141 99.6172 98.9531 99.5586 98.4609 99.4727C98.3164 99.4414 98.2031 99.4414 98.1133 99.4141C97.625 99.3281 97.1641 99.2695 96.6992 99.2422ZM95.9805 83.2773C95.6055 83.3633 95.2305 83.5078 94.8828 83.6836C94.9961 84.1719 94.9414 84.6367 94.6523 85.0391C95.1406 85.3867 95.4023 85.9063 95.4023 86.5977V86.625C95.4023 87.3203 95.1406 87.8398 94.6523 88.1836C94.9102 88.5898 94.9961 89.0508 94.8828 89.543C95.2305 89.7148 95.6055 89.8594 95.9805 89.9453C96.4141 90.0625 96.8437 90.1211 97.3086 90.1211C98.5195 90.1211 99.7891 89.7148 100.945 88.9648C101.406 88.6758 101.84 88.3008 102.301 87.9258C102.676 87.6367 103.051 87.3203 103.457 87.0312C103.512 87.0039 103.602 86.9141 103.715 86.8281L103.832 86.7422C103.887 86.7148 103.918 86.625 103.918 86.5703C103.918 86.5117 103.887 86.4531 103.832 86.3945L103.715 86.3086C103.602 86.2227 103.512 86.1641 103.484 86.1367C103.078 85.8477 102.703 85.5312 102.328 85.2422C101.867 84.8672 101.434 84.5195 100.973 84.2031C99.8164 83.4531 98.5781 83.0469 97.3359 83.0469C96.8437 83.1055 96.4141 83.1641 95.9805 83.2773ZM94.4766 89.832C94.7383 89.2266 94.6523 88.7344 94.3906 88.3594C93.8125 88.6172 93.0352 88.6758 92.2539 88.6172C92.1992 88.8203 92.1094 88.9922 92.0234 89.168C92.6289 89.6875 93.1484 90.2344 93.3516 90.8398C93.8125 90.7539 94.2187 90.4648 94.4766 89.832C94.4492 89.8594 94.4492 89.8594 94.4766 89.832C94.4766 89.832 94.4492 89.8594 94.4766 89.832ZM92.6289 92.5742C93.0938 92.1094 93.207 91.6484 93.1211 91.1875C92.4883 91.2148 91.7656 90.957 91.043 90.6094C91.1016 90.5234 91.1875 90.4648 91.2461 90.3789C91.8516 90.6953 92.457 90.8984 93.0078 90.8984C92.8047 90.3789 92.3711 89.918 91.8516 89.457C91.8516 89.4258 91.8789 89.4258 91.8789 89.3984C91.332 90.4375 90.4648 91.3047 89.3984 91.8789C89.4258 91.8789 89.4258 91.8516 89.457 91.8516C89.8867 92.3711 90.3789 92.8047 90.8984 93.0078C90.8984 92.457 90.6953 91.8516 90.3789 91.2461C90.4648 91.1875 90.5508 91.1016 90.6094 91.043C90.9844 91.7344 91.2148 92.457 91.1875 93.1211C91.707 93.1797 92.168 93.0352 92.6289 92.5742ZM89.918 94.3906C90.5234 94.1328 90.8125 93.7578 90.8984 93.293C90.293 93.0625 89.7148 92.5742 89.2266 91.9688C89.0508 92.0547 88.8477 92.1406 88.6758 92.1992C88.7344 92.9766 88.707 93.7578 88.418 94.332C88.8203 94.5937 89.3125 94.6523 89.918 94.3906C89.918 94.3906 89.8867 94.4219 89.918 94.3906ZM86.6836 95.0547C87.3477 95.0547 87.7812 94.8242 88.043 94.4219C87.5781 93.9883 87.2344 93.293 87.0039 92.543C86.9141 92.543 86.8008 92.543 86.7148 92.543C86.625 92.543 86.5117 92.543 86.4258 92.543C86.1953 93.293 85.8477 93.9883 85.3867 94.4219C85.6172 94.7969 86.0195 95.0547 86.6836 95.0547ZM86.0781 92.5156C85.7031 92.4883 85.3555 92.3984 85.0117 92.3125C84.9531 93.0078 84.9805 93.6406 85.2109 94.1602C85.5859 93.7578 85.875 93.1484 86.0781 92.5156ZM88.1836 94.1328C88.3867 93.6406 88.4453 92.9766 88.3867 92.2852C88.043 92.3984 87.6953 92.457 87.3203 92.4883C87.4922 93.1484 87.7812 93.7578 88.1836 94.1328ZM92.1406 86.625C92.1406 83.5977 89.6875 81.1719 86.6836 81.1719C83.6523 81.1719 81.2305 83.625 81.2305 86.625C81.2305 89.6562 83.6836 92.082 86.6836 92.082C89.7148 92.082 92.1406 89.6562 92.1406 86.625ZM83.4531 94.3906C83.4531 94.3906 83.4805 94.4219 83.4531 94.3906C84.0586 94.6523 84.5469 94.5937 84.9531 94.3047C84.6914 93.7266 84.6367 92.9492 84.6914 92.168C84.4922 92.1094 84.3164 92.0234 84.1445 91.9375C83.625 92.543 83.0781 93.0625 82.4688 93.2656C82.5586 93.7578 82.8438 94.1602 83.4531 94.3906ZM82.9609 91.2148C82.6445 91.8242 82.4414 92.4297 82.4414 92.9766C82.9609 92.7734 83.4219 92.3437 83.8828 91.8242C83.9141 91.8242 83.9141 91.8516 83.9414 91.8516C82.9023 91.3047 82.0391 90.4375 81.4609 89.3672C81.4609 89.3984 81.4883 89.3984 81.4883 89.4258C80.9687 89.8594 80.5352 90.3516 80.3359 90.8711C80.8828 90.8711 81.4883 90.668 82.0938 90.3516C82.1523 90.4375 82.2383 90.5234 82.2969 90.582C81.6055 90.957 80.8828 91.1875 80.2188 91.1602C80.1328 91.6211 80.2461 92.1094 80.7109 92.543C81.1719 93.0078 81.6328 93.1211 82.0938 93.0352C82.0664 92.3984 82.3242 91.6797 82.6719 90.957C82.7891 91.0703 82.875 91.1602 82.9609 91.2148ZM78.8906 89.832C78.8906 89.832 78.918 89.8594 78.8906 89.832C78.918 89.8594 78.918 89.8594 78.8906 89.832C79.1523 90.4375 79.5273 90.7539 79.9883 90.8398C80.2187 90.2344 80.7109 89.6562 81.3164 89.168C81.2305 88.9922 81.1406 88.793 81.0859 88.6172C80.3047 88.6758 79.5273 88.6484 78.9492 88.3594C78.7187 88.7617 78.6602 89.2539 78.8906 89.832ZM78.2539 86.625C78.2539 87.2891 78.4883 87.6953 78.8906 87.9531C79.3242 87.4922 80.0156 87.1445 80.7656 86.9141C80.7656 86.8281 80.7656 86.7148 80.7656 86.625C80.7656 86.5391 80.7656 86.4258 80.7656 86.3398C80.0156 86.1055 79.3242 85.7617 78.8906 85.3008C78.5156 85.5586 78.2539 85.9609 78.2539 86.625ZM78.8906 83.4219C78.6328 84.0273 78.7187 84.5195 78.9766 84.8945C79.5547 84.6367 80.3359 84.5781 81.1133 84.6367C81.1719 84.4336 81.2578 84.2617 81.3438 84.0859C80.7383 83.5664 80.2188 83.0195 80.0156 82.4141C79.5547 82.5 79.1523 82.7891 78.8906 83.4219C78.918 83.3945 78.918 83.3945 78.8906 83.4219C78.8906 83.4219 78.918 83.3945 78.8906 83.4219ZM80.7383 80.6797C80.2773 81.1406 80.1602 81.6055 80.2461 82.0664C80.8828 82.0391 81.6055 82.2969 82.3242 82.6445C82.2695 82.7305 82.1797 82.7891 82.125 82.875C81.5195 82.5586 80.9102 82.3555 80.3633 82.3555C80.5664 82.875 80.9961 83.3359 81.5195 83.7969C81.5195 83.8281 81.4883 83.8281 81.4883 83.8555C82.0391 82.8164 82.9023 81.9492 83.9727 81.375C83.9414 81.375 83.9414 81.4023 83.9141 81.4023C83.4805 80.8828 82.9883 80.4492 82.4688 80.2461C82.4688 80.7969 82.6719 81.4023 82.9883 82.0078C82.9023 82.0664 82.8164 82.1523 82.7578 82.2109C82.3828 81.5195 82.1523 80.7969 82.1797 80.1328C81.6602 80.0742 81.1992 80.2187 80.7383 80.6797ZM83.4531 78.8633C82.8438 79.1211 82.5586 79.4961 82.4688 79.957C83.0781 80.1914 83.6523 80.6797 84.1445 81.2852C84.3164 81.1992 84.5195 81.1133 84.6914 81.0547C84.6367 80.2773 84.6641 79.4961 84.9531 78.918C84.5469 78.6602 84.0586 78.6016 83.4531 78.8633C83.4531 78.8633 83.4805 78.832 83.4531 78.8633ZM81.0273 84.9531C80.3359 84.8945 79.6992 84.9219 79.1797 85.1562C79.5547 85.5312 80.1602 85.8203 80.7969 86.0508C80.8555 85.6445 80.9102 85.3008 81.0273 84.9531ZM80.7969 87.2344C80.1602 87.4336 79.5547 87.7227 79.1797 88.1289C79.6719 88.3281 80.3359 88.3867 81.0273 88.3281C80.9102 87.9531 80.8555 87.6094 80.7969 87.2344ZM86.6836 78.1992C86.0195 78.1992 85.5859 78.4297 85.3281 78.832C85.7891 79.2656 86.1367 79.957 86.3672 80.7109C86.4531 80.7109 86.5703 80.7109 86.6562 80.7109C86.7422 80.7109 86.8594 80.7109 86.9453 80.7109C87.1758 79.957 87.5234 79.2656 87.9844 78.832C87.7539 78.457 87.3477 78.1992 86.6836 78.1992ZM87.2891 80.7383C87.6641 80.7656 88.0117 80.8555 88.3594 80.9414C88.418 80.2461 88.3867 79.6133 88.1562 79.0938C87.7812 79.4961 87.4922 80.1016 87.2891 80.7383ZM85.1836 79.1211C84.9805 79.6133 84.9219 80.2773 84.9805 80.9688C85.3281 80.8555 85.6758 80.7969 86.0508 80.7656C85.875 80.1016 85.5859 79.4961 85.1836 79.1211ZM89.918 78.8633C89.918 78.8633 89.8867 78.832 89.918 78.8633C89.3125 78.6016 88.8203 78.6602 88.418 78.9492C88.6758 79.5273 88.7344 80.3047 88.6758 81.0859C88.8789 81.1406 89.0508 81.2305 89.2266 81.3164C89.7461 80.7109 90.293 80.1914 90.8984 79.9883C90.8125 79.4961 90.5234 79.0937 89.918 78.8633ZM90.4062 82.0391C90.7266 81.4297 90.9258 80.8242 90.9258 80.2773C90.4062 80.4766 89.9453 80.9102 89.4844 81.4297C89.457 81.4297 89.457 81.4023 89.4258 81.4023C90.4961 81.9492 91.3594 82.8164 91.9102 83.8828C91.9102 83.8555 91.8789 83.8555 91.8789 83.8281C92.3984 83.3945 92.832 82.9023 93.0352 82.3828C92.4883 82.3828 91.8789 82.5859 91.2734 82.9023C91.2148 82.8164 91.1289 82.7305 91.0703 82.6719C91.7656 82.2969 92.4883 82.0664 93.1484 82.0938C93.2383 81.6328 93.1211 81.1406 92.6602 80.7109C92.1992 80.2461 91.7344 80.1328 91.2734 80.2188C91.3047 80.8555 91.043 81.5742 90.6953 82.2969C90.582 82.1797 90.4961 82.0937 90.4062 82.0391ZM94.4766 83.4219C94.4766 83.4219 94.4492 83.3945 94.4766 83.4219C94.4492 83.3945 94.4492 83.3945 94.4766 83.4219C94.2187 82.8164 93.8437 82.5 93.3828 82.4141C93.1484 83.0195 92.6602 83.5977 92.0547 84.0859C92.1406 84.2617 92.2266 84.4609 92.2852 84.6367C93.0625 84.5781 93.8438 84.6055 94.4219 84.8945C94.6523 84.4922 94.7109 84 94.4766 83.4219ZM92.5742 86.0195C93.207 85.8203 93.8125 85.5312 94.1914 85.125C93.6992 84.9219 93.0352 84.8672 92.3438 84.9219C92.457 85.3008 92.5156 85.6445 92.5742 86.0195ZM92.5742 87.2344C92.543 87.6094 92.457 87.9531 92.3711 88.3008C93.0625 88.3594 93.6992 88.3281 94.2188 88.0977C93.8125 87.7227 93.207 87.4336 92.5742 87.2344ZM95.1133 86.625C95.1133 85.9609 94.8828 85.5312 94.4766 85.2695C94.0469 85.7305 93.3516 86.0781 92.6016 86.3086C92.6016 86.3945 92.6016 86.5117 92.6016 86.5977C92.6016 86.6836 92.6016 86.8008 92.6016 86.8867C93.3516 87.1172 94.0469 87.4648 94.4766 87.9258C94.8516 87.6953 95.1133 87.2891 95.1133 86.625ZM90.3789 78.7461C90.8125 79.0078 91.0703 79.3828 91.1875 79.8711C91.793 79.7578 92.3437 79.957 92.832 80.4492C93.3242 80.9414 93.5273 81.4883 93.4102 82.0938C93.8711 82.1797 94.2461 82.4687 94.5352 82.9023C94.9102 82.7891 95.2578 82.6133 95.6055 82.4141C97.0195 81.5469 98.0273 80.0742 98.4023 78.1992C98.5195 77.6484 98.5781 77.1016 98.6367 76.5234C98.6914 76.0625 98.7227 75.5703 98.8086 75.082C98.8086 75.0234 98.8359 74.9062 98.8359 74.7617C98.8359 74.707 98.8359 74.6758 98.8672 74.6172C98.8672 74.5625 98.8672 74.4727 98.8086 74.4453C98.7773 74.418 98.7227 74.3867 98.6641 74.3867H98.6367C98.5781 74.3867 98.4922 74.418 98.4922 74.418C98.375 74.4453 98.2578 74.4453 98.2031 74.4453C97.7109 74.5312 97.2187 74.5625 96.7578 74.6172C96.1797 74.6758 95.6328 74.7344 95.0859 74.8516C93.2383 75.2266 91.7344 76.2344 90.8711 77.6484C90.668 78.0234 90.5234 78.3711 90.3789 78.7461ZM83.3359 77.332C83.4219 77.707 83.5664 78.082 83.7422 78.4297C84.2305 78.3125 84.6914 78.3711 85.0977 78.6602C85.4414 78.168 85.9609 77.9102 86.6562 77.9102H86.6836C87.3789 77.9102 87.8984 78.168 88.2422 78.6602C88.6484 78.3984 89.1094 78.3125 89.6016 78.4297C89.7734 78.082 89.918 77.707 90.0039 77.332C90.4063 75.7148 90.0625 73.9531 89.0234 72.3672C88.7344 71.9062 88.3594 71.4727 87.9844 71.0117C87.6953 70.6367 87.3789 70.2617 87.0898 69.8555C87.0586 69.7969 86.9727 69.7109 86.9141 69.625L86.8281 69.5078C86.8008 69.4531 86.7148 69.4219 86.6562 69.4219C86.5977 69.4219 86.5391 69.4531 86.4844 69.5078L86.3945 69.625C86.3086 69.7422 86.25 69.8281 86.1953 69.8867C85.9062 70.2891 85.5859 70.6641 85.3008 71.0391C84.9219 71.5 84.5781 71.9336 84.2617 72.3945C83.2773 73.9844 82.9336 75.7461 83.3359 77.332ZM77.7344 82.4414C78.082 82.6445 78.4297 82.8164 78.8047 82.9336C79.0625 82.5 79.4375 82.2383 79.9297 82.125C79.8164 81.5195 80.0156 80.9687 80.5078 80.4766C81 79.9883 81.5469 79.7852 82.1523 79.9023C82.2383 79.4375 82.5273 79.0625 82.9609 78.7773C82.8437 78.3984 82.6719 78.0547 82.4688 77.707C81.6055 76.293 80.1328 75.2812 78.2539 74.9062C77.707 74.793 77.1602 74.7344 76.582 74.6758C76.1211 74.6172 75.6289 74.5898 75.1367 74.5039C75.082 74.5039 74.9648 74.4727 74.8516 74.4727L74.707 74.4453H74.6758C74.6172 74.4453 74.5625 74.4727 74.5312 74.5039C74.4727 74.5625 74.4727 74.6172 74.4727 74.6758L74.5039 74.8203C74.5313 74.9375 74.5312 75.0508 74.5312 75.1094C74.6172 75.6016 74.6484 76.0898 74.707 76.5547C74.7617 77.1289 74.8203 77.6797 74.9375 78.2266C75.3398 80.0742 76.3203 81.5742 77.7344 82.4414ZM77.3906 89.9766C77.7656 89.8867 78.1406 89.7461 78.4883 89.5703C78.3711 89.082 78.4297 88.6172 78.7188 88.2148C78.2266 87.8672 77.9688 87.3477 77.9688 86.6562V86.625C77.9688 85.9336 78.2266 85.4141 78.7188 85.0664C78.457 84.6641 78.3711 84.2031 78.4883 83.7109C78.1406 83.5391 77.7656 83.3945 77.3906 83.3086C76.957 83.1914 76.5234 83.1328 76.0625 83.1328C74.8516 83.1328 73.5781 83.5391 72.4258 84.2891C71.9648 84.5781 71.5313 84.9531 71.0664 85.3281C70.6914 85.6172 70.3164 85.9336 69.9141 86.2227C69.8555 86.25 69.7695 86.3398 69.6836 86.3945L69.5664 86.4844C69.5078 86.5117 69.4805 86.5977 69.4805 86.6562C69.4805 86.7148 69.5078 86.7695 69.5664 86.8281L69.6836 86.9141C69.7969 87.0039 69.8867 87.0586 69.9141 87.0898C70.3164 87.3789 70.6914 87.6953 71.0664 87.9844C71.5313 88.3594 71.9648 88.707 72.4258 89.0234C73.5781 89.7734 74.8203 90.1758 76.0625 90.1758C76.5234 90.1484 76.957 90.0898 77.3906 89.9766ZM82.9883 94.5078C82.5586 94.2461 82.2969 93.8711 82.1797 93.3828C81.5742 93.4961 81.0273 93.293 80.5352 92.8047C80.0469 92.3125 79.8437 91.7656 79.957 91.1602C79.4961 91.0703 79.1211 90.7852 78.832 90.3516C78.457 90.4648 78.1133 90.6406 77.7656 90.8398C76.3516 91.707 75.3398 93.1797 74.9648 95.0547C74.8516 95.6055 74.793 96.1523 74.7344 96.7305C74.6758 97.1914 74.6484 97.6836 74.5625 98.1719C74.5625 98.2305 74.5312 98.3477 74.5312 98.4922L74.5039 98.6367C74.5039 98.6914 74.5039 98.7773 74.5625 98.8086C74.5898 98.8359 74.6484 98.8672 74.707 98.8672H74.7344L74.8789 98.8359C74.9922 98.8086 75.1094 98.8086 75.168 98.8086C75.6562 98.7227 76.1484 98.6914 76.6094 98.6367C77.1875 98.5781 77.7344 98.5195 78.2852 98.4023C80.1328 98.0273 81.6328 97.0195 82.5 95.6055C82.6992 95.2305 82.8437 94.8828 82.9883 94.5078ZM90.0312 95.9219C89.9453 95.5469 89.8008 95.1719 89.6289 94.8242C89.1367 94.9414 88.6758 94.8828 88.2734 94.5938C87.9258 95.0859 87.4062 95.3438 86.7148 95.3438H86.6836C85.9922 95.3438 85.4727 95.0859 85.125 94.5938C84.7227 94.8516 84.2617 94.9414 83.7695 94.8242C83.5977 95.1719 83.4531 95.5469 83.3633 95.9219C82.9609 97.5391 83.3086 99.2969 84.3477 100.859C84.6367 101.32 85.0117 101.754 85.3867 102.215C85.6758 102.59 85.9922 102.965 86.2812 103.367C86.3086 103.426 86.3945 103.512 86.4531 103.602C86.4531 103.602 86.5117 103.687 86.5391 103.715C86.5703 103.773 86.6562 103.801 86.7148 103.801C86.7695 103.801 86.8281 103.773 86.8867 103.715L86.9727 103.602C87.0586 103.512 87.1172 103.398 87.1758 103.34C87.4648 102.937 87.7812 102.559 88.0703 102.184C88.4453 101.723 88.793 101.289 89.1094 100.828C90.0898 99.2695 90.4375 97.5078 90.0312 95.9219ZM95.0859 98.375C95.6328 98.4922 96.1797 98.5469 96.7578 98.6055C97.2187 98.6641 97.7109 98.6914 98.2031 98.7773C98.2578 98.7773 98.375 98.8086 98.4922 98.8086L98.6367 98.8359H98.6641C98.7227 98.8359 98.7773 98.8086 98.8086 98.7773C98.8672 98.7227 98.8672 98.6641 98.8672 98.6055C98.8672 98.5469 98.8672 98.5195 98.8359 98.4609C98.8086 98.3477 98.8086 98.2031 98.8086 98.1445C98.7227 97.6523 98.6914 97.1641 98.6367 96.6992C98.5781 96.125 98.5195 95.5742 98.4023 95.0273C98.0273 93.1797 97.0195 91.6797 95.6055 90.8125C95.2578 90.6094 94.9102 90.4375 94.5352 90.3203C94.2773 90.7539 93.9023 91.0156 93.4102 91.1289C93.5273 91.7344 93.3242 92.2852 92.832 92.7734C92.3437 93.2656 91.793 93.4687 91.1875 93.3516C91.1016 93.8125 90.8125 94.1914 90.3789 94.4766C90.4961 94.8516 90.668 95.1992 90.8711 95.5469C91.7344 96.9883 93.2383 97.9727 95.0859 98.375ZM86.4844 79.0078C86.4844 79.1211 86.5703 79.207 86.6836 79.207C86.8008 79.207 86.8867 79.1211 86.8867 79.0078C86.8867 78.8906 86.8008 78.8047 86.6836 78.8047C86.5703 78.8047 86.4844 78.8906 86.4844 79.0078ZM86.8867 94.2461C86.8867 94.1328 86.8008 94.0469 86.6836 94.0469C86.5703 94.0469 86.4844 94.1328 86.4844 94.2461C86.4844 94.3633 86.5703 94.4492 86.6836 94.4492C86.8008 94.4492 86.8867 94.3633 86.8867 94.2461ZM94.3047 86.4258C94.1914 86.4258 94.1016 86.5117 94.1016 86.625C94.1016 86.7422 94.1914 86.8281 94.3047 86.8281C94.4219 86.8281 94.5078 86.7422 94.5078 86.625C94.5078 86.5117 94.4219 86.4258 94.3047 86.4258ZM79.0625 86.8281C79.1797 86.8281 79.2656 86.7422 79.2656 86.625C79.2656 86.5117 79.1797 86.4258 79.0625 86.4258C78.9492 86.4258 78.8633 86.5117 78.8633 86.625C78.8633 86.7422 78.9492 86.8281 79.0625 86.8281ZM92.2266 81.4023C92.3125 81.3164 92.3125 81.1992 92.2266 81.1133C92.1406 81.0273 92.0234 81.0273 91.9375 81.1133C91.8516 81.1992 91.8516 81.3164 91.9375 81.4023C92.0234 81.4883 92.1406 81.4609 92.2266 81.4023ZM81.1406 91.8516C81.0547 91.9375 81.0547 92.0547 81.1406 92.1406C81.2305 92.2266 81.3437 92.2266 81.4297 92.1406C81.5195 92.0547 81.5195 91.9375 81.4297 91.8516C81.3437 91.7656 81.2305 91.793 81.1406 91.8516ZM91.9102 91.8516C91.8242 91.9375 91.8242 92.0547 91.9102 92.1406C91.9961 92.2266 92.1094 92.2266 92.1992 92.1406C92.2852 92.0547 92.2852 91.9375 92.1992 91.8516C92.1094 91.7656 91.9961 91.793 91.9102 91.8516ZM81.4609 81.4023C81.5469 81.3164 81.5469 81.1992 81.4609 81.1133C81.375 81.0273 81.2578 81.0273 81.1719 81.1133C81.0859 81.1992 81.0859 81.3164 81.1719 81.4023C81.2578 81.4883 81.375 81.4609 81.4609 81.4023ZM89.6875 79.4102C89.5703 79.3516 89.457 79.4102 89.4258 79.5273C89.3672 79.6406 89.4258 79.7578 89.543 79.7852C89.6562 79.8438 89.7734 79.7852 89.8008 79.6719C89.832 79.5547 89.7734 79.4375 89.6875 79.4102ZM83.6836 93.8438C83.7969 93.9023 83.9141 93.8437 83.9414 93.7266C84 93.6133 83.9414 93.4961 83.8281 93.4688C83.7109 93.4102 83.5977 93.4687 83.5664 93.582C83.5391 93.6992 83.5977 93.8125 83.6836 93.8438ZM93.7852 89.3398C93.6719 89.2812 93.5547 89.3398 93.5273 89.457C93.4687 89.5703 93.5273 89.6875 93.6406 89.7148C93.7578 89.7734 93.8711 89.7148 93.9023 89.6016C93.957 89.5117 93.9023 89.3984 93.7852 89.3398ZM79.582 83.9141C79.6992 83.9727 79.8164 83.9141 79.8438 83.7969C79.9023 83.6836 79.8437 83.5664 79.7266 83.5391C79.6133 83.4805 79.4961 83.5391 79.4688 83.6523C79.4102 83.7422 79.4687 83.8555 79.582 83.9141ZM93.6406 83.5078C93.5273 83.5664 93.4961 83.6836 93.5273 83.7695C93.582 83.8828 93.6992 83.9141 93.7852 83.8828C93.8711 83.8555 93.9297 83.7109 93.9023 83.625C93.8711 83.5391 93.7578 83.4805 93.6406 83.5078ZM79.7266 89.7461C79.8437 89.6875 79.8711 89.5703 79.8438 89.4844C79.7852 89.3672 79.6719 89.3398 79.582 89.3672C79.4687 89.4258 79.4375 89.543 79.4688 89.6289C79.4961 89.7148 79.6133 89.7734 79.7266 89.7461ZM89.5117 93.4688C89.3984 93.5273 89.3672 93.6406 89.3984 93.7266C89.457 93.8437 89.5703 93.8711 89.6562 93.8438C89.7734 93.7852 89.8008 93.6719 89.7734 93.582C89.7461 93.4687 89.6289 93.4102 89.5117 93.4688ZM83.8555 79.7852C83.9727 79.7266 84 79.6133 83.9727 79.5273C83.9141 79.4102 83.7969 79.3828 83.7109 79.4102C83.5977 79.4688 83.5664 79.582 83.5977 79.6719C83.625 79.7852 83.7422 79.8438 83.8555 79.7852ZM85.4141 75.8906C85.2422 75.3398 85.3867 74.4453 85.6758 73.8672C85.9336 73.3477 86.1367 73.1484 86.3672 72.7148C86.5391 72.4258 86.6836 72.2812 86.6836 71.9648C86.6836 72.2812 86.8281 72.4531 87.0039 72.7148C87.2617 73.1484 87.4336 73.3477 87.6953 73.8672C87.9844 74.4453 88.1289 75.3398 87.9531 75.8906C87.8086 76.4102 87.4922 76.8984 86.6836 76.8984C85.8477 76.9297 85.5586 76.4102 85.4141 75.8906ZM85.7617 75.8008C85.9336 76.3516 86.1641 76.5547 86.6836 76.5547C87.2031 76.5547 87.4336 76.3516 87.6094 75.8008C87.7539 75.3711 87.6367 74.5625 87.3789 74.043C87.2344 73.7227 87.0898 73.5508 86.9727 73.3477C86.8867 73.2344 86.8008 73.0898 86.6836 72.9141C86.5977 73.0898 86.4844 73.2031 86.3945 73.3477C86.25 73.5508 86.1367 73.7227 85.9922 74.043C85.7305 74.5625 85.6172 75.3398 85.7617 75.8008ZM87.9531 97.3633C88.1289 97.9141 87.9844 98.8086 87.6953 99.3867C87.4336 99.9062 87.2344 100.105 87.0039 100.539C86.8281 100.828 86.6836 100.973 86.6836 101.289C86.6836 100.973 86.5391 100.801 86.3672 100.539C86.1055 100.105 85.9336 99.9062 85.6758 99.3867C85.3867 98.8086 85.2422 97.9141 85.4141 97.3633C85.5586 96.8437 85.875 96.3555 86.6836 96.3555C87.5234 96.3242 87.8086 96.8437 87.9531 97.3633ZM87.6094 97.4531C87.4336 96.9023 87.2031 96.6992 86.6836 96.6992C86.1641 96.6992 85.9336 96.9023 85.7617 97.4531C85.6172 97.8828 85.7305 98.6914 85.9922 99.2109C86.1367 99.5312 86.2812 99.7031 86.3945 99.9062C86.4844 100.02 86.5703 100.164 86.6836 100.336C86.7695 100.164 86.8867 100.051 86.9727 99.9062C87.1172 99.7031 87.2344 99.5312 87.3789 99.2109C87.6367 98.6914 87.7539 97.9141 87.6094 97.4531ZM96.3828 86.625C96.3828 85.7891 96.875 85.5 97.3945 85.3555C97.9414 85.1836 98.8359 85.3281 99.4141 85.6172C99.9336 85.875 100.137 86.0781 100.57 86.3086C100.859 86.4844 101 86.625 101.32 86.625C101 86.625 100.828 86.7695 100.57 86.9453C100.137 87.2031 99.9336 87.3789 99.4141 87.6367C98.8359 87.9258 97.9414 88.0703 97.3945 87.8984C96.9023 87.7539 96.3828 87.4648 96.3828 86.625ZM96.7578 86.625C96.7578 87.1445 96.9609 87.3789 97.5078 87.5508C97.9414 87.6953 98.75 87.5781 99.2695 87.3203C99.5859 87.1758 99.7617 87.0312 99.9609 86.9141C100.078 86.8281 100.223 86.7422 100.395 86.625C100.223 86.5391 100.105 86.4258 99.9609 86.3398C99.7617 86.1953 99.5859 86.0781 99.2695 85.9336C98.75 85.6758 97.9727 85.5586 97.5078 85.7031C96.9609 85.875 96.7578 86.1055 96.7578 86.625ZM76.9844 86.625C76.9844 87.4648 76.4961 87.7539 75.9766 87.8984C75.4258 88.0703 74.5312 87.9258 73.9531 87.6367C73.4336 87.3789 73.2344 87.1758 72.8008 86.9453C72.5117 86.7695 72.3672 86.625 72.0508 86.625C72.3672 86.625 72.5391 86.4844 72.8008 86.3086C73.2344 86.0508 73.4336 85.875 73.9531 85.6172C74.5312 85.3281 75.4258 85.1836 75.9766 85.3555C76.4648 85.5 76.9844 85.7891 76.9844 86.625ZM76.6094 86.625C76.6094 86.1055 76.4102 85.875 75.8594 85.7031C75.4258 85.5586 74.6172 85.6758 74.0977 85.9336C73.7813 86.0781 73.6094 86.2227 73.4062 86.3398C73.2891 86.4258 73.1484 86.5117 72.9727 86.625C73.1484 86.7148 73.2617 86.8281 73.4062 86.9141C73.6094 87.0586 73.7813 87.1758 74.0977 87.3203C74.6172 87.5781 75.3984 87.6953 75.8594 87.5508C76.4102 87.3789 76.6094 87.1445 76.6094 86.625ZM93.5547 79.7578C92.9766 79.1797 93.1211 78.6016 93.3828 78.1406C93.6406 77.6211 94.3906 77.1016 94.9961 76.8984C95.5742 76.7266 95.8359 76.6953 96.3242 76.582C96.6445 76.4961 96.8437 76.4961 97.0742 76.2656C96.8437 76.4961 96.8437 76.6953 96.7578 77.0156C96.6445 77.5039 96.6133 77.7656 96.4414 78.3438C96.2383 78.9492 95.6914 79.6719 95.1992 79.957C94.6797 80.1914 94.1328 80.3633 93.5547 79.7578ZM93.8125 79.4961C94.1602 79.8437 94.5078 79.8711 94.9961 79.6133C95.4023 79.3828 95.8945 78.7461 96.0664 78.1992C96.1797 77.8789 96.2109 77.6484 96.2695 77.418C96.2969 77.2734 96.3242 77.1016 96.3828 76.9297C96.1797 76.9844 96.0352 77.0156 95.8945 77.043C95.6602 77.1016 95.4297 77.1289 95.1133 77.2461C94.5664 77.418 93.9297 77.9102 93.6992 78.3125C93.4102 78.832 93.4375 79.1523 93.8125 79.4961ZM79.8164 93.4961C80.3906 94.0742 80.2461 94.6523 79.9883 95.1133C79.7266 95.6328 78.9766 96.1523 78.3711 96.3555C77.793 96.5273 77.5352 96.5547 77.043 96.6719C76.7266 96.7578 76.5234 96.7578 76.293 96.9883C76.5234 96.7578 76.5234 96.5547 76.6094 96.2383C76.7266 95.75 76.7539 95.4883 76.9297 94.9102C77.1289 94.3047 77.6797 93.582 78.168 93.293C78.6875 93.0625 79.2383 92.8906 79.8164 93.4961ZM79.5547 93.7578C79.207 93.4102 78.8633 93.3828 78.3711 93.6406C77.9687 93.8711 77.4766 94.5078 77.3047 95.0547C77.1875 95.3711 77.1602 95.6055 77.1016 95.8359C77.0742 95.9805 77.043 96.1523 76.9844 96.3242C77.1875 96.2695 77.332 96.2383 77.4766 96.2109C77.707 96.1523 77.9375 96.125 78.2539 96.0078C78.8047 95.8359 79.4375 95.3438 79.6719 94.9414C79.957 94.4219 79.9297 94.1016 79.5547 93.7578ZM97.0469 96.9883C96.8164 96.7578 96.6133 96.7578 96.2969 96.6719C95.8047 96.5547 95.5469 96.5273 94.9688 96.3555C94.3633 96.1523 93.6406 95.6055 93.3516 95.1133C93.0937 94.6211 92.9492 94.0742 93.5273 93.4961C94.1016 92.918 94.6797 93.0625 95.1406 93.3242C95.6602 93.582 96.1797 94.332 96.3828 94.9414C96.5547 95.5156 96.5859 95.7773 96.6992 96.2695C96.8164 96.5547 96.8164 96.7578 97.0469 96.9883ZM96.3828 96.3242C96.3242 96.125 96.2969 95.9805 96.2695 95.8359C96.2109 95.6055 96.1797 95.3711 96.0664 95.0547C95.8906 94.5078 95.4023 93.8711 94.9961 93.6406C94.4766 93.3516 94.1602 93.4102 93.8125 93.7578C93.4688 94.1016 93.4375 94.4492 93.6992 94.9414C93.9297 95.3438 94.5664 95.8359 95.1133 96.0078C95.4297 96.125 95.6602 96.1523 95.8906 96.2109C96.0352 96.2383 96.1797 96.2695 96.3828 96.3242ZM76.957 78.3438C76.7852 77.7656 76.7539 77.5039 76.6406 77.0156C76.5547 76.6953 76.5547 76.4961 76.3203 76.2656C76.5547 76.4961 76.7539 76.4961 77.0742 76.582C77.5625 76.6953 77.8242 76.7266 78.3984 76.8984C79.0078 77.1016 79.7266 77.6484 80.0156 78.1406C80.2773 78.6328 80.4219 79.1797 79.8438 79.7578C79.2656 80.3359 78.6875 80.1914 78.2266 79.9297C77.6797 79.6719 77.1602 78.9492 76.957 78.3438ZM76.9844 76.9297C77.043 77.1289 77.0742 77.2734 77.1016 77.418C77.1602 77.6484 77.1875 77.8789 77.3047 78.1992C77.4766 78.7461 77.9687 79.3828 78.3711 79.6133C78.8906 79.9023 79.207 79.8437 79.5547 79.4961C79.9023 79.1523 79.9297 78.8047 79.6719 78.3125C79.4375 77.9102 78.8047 77.418 78.2539 77.2461C77.9375 77.1289 77.707 77.1016 77.4766 77.043C77.332 77.0156 77.1875 76.9844 76.9844 76.9297Z" fill="white"/>
</svg>
